%TF.GenerationSoftware,KiCad,Pcbnew,7.0.8*%
%TF.CreationDate,2023-10-20T13:28:23-04:00*%
%TF.ProjectId,flipper-zero-gbc-link-adapter,666c6970-7065-4722-9d7a-65726f2d6762,rev?*%
%TF.SameCoordinates,Original*%
%TF.FileFunction,Copper,L2,Bot*%
%TF.FilePolarity,Positive*%
%FSLAX46Y46*%
G04 Gerber Fmt 4.6, Leading zero omitted, Abs format (unit mm)*
G04 Created by KiCad (PCBNEW 7.0.8) date 2023-10-20 13:28:23*
%MOMM*%
%LPD*%
G01*
G04 APERTURE LIST*
%TA.AperFunction,ComponentPad*%
%ADD10C,1.200000*%
%TD*%
%TA.AperFunction,ComponentPad*%
%ADD11C,2.400000*%
%TD*%
%TA.AperFunction,ComponentPad*%
%ADD12R,1.700000X1.700000*%
%TD*%
%TA.AperFunction,ComponentPad*%
%ADD13O,1.700000X1.700000*%
%TD*%
%TA.AperFunction,Conductor*%
%ADD14C,0.250000*%
%TD*%
G04 APERTURE END LIST*
D10*
%TO.P,J2,1,+5V*%
%TO.N,unconnected-(J2-+5V-Pad1)*%
X103854000Y-102924000D03*
%TO.P,J2,2,SER_OUT*%
%TO.N,SERIAL_OUT*%
X103854000Y-100924000D03*
%TO.P,J2,3,SER_IN*%
%TO.N,SERIAL_IN*%
X101854000Y-102924000D03*
%TO.P,J2,4,RSVE*%
%TO.N,unconnected-(J2-RSVE-Pad4)*%
X101854000Y-100924000D03*
%TO.P,J2,5,CLK_OUT*%
%TO.N,Net-(J2-CLK_OUT)*%
X99854000Y-102924000D03*
%TO.P,J2,6,GND*%
%TO.N,GND*%
X99854000Y-100924000D03*
D11*
%TO.P,J2,7*%
%TO.N,N/C*%
X97254000Y-101174000D03*
%TO.P,J2,8*%
X106454000Y-101174000D03*
%TD*%
D12*
%TO.P,J1,1,Pin_1*%
%TO.N,unconnected-(J1-Pin_1-Pad1)*%
X110744000Y-109093000D03*
D13*
%TO.P,J1,2,Pin_2*%
%TO.N,unconnected-(J1-Pin_2-Pad2)*%
X108204000Y-109093000D03*
%TO.P,J1,3,Pin_3*%
%TO.N,unconnected-(J1-Pin_3-Pad3)*%
X105664000Y-109093000D03*
%TO.P,J1,4,Pin_4*%
%TO.N,unconnected-(J1-Pin_4-Pad4)*%
X103124000Y-109093000D03*
%TO.P,J1,5,Pin_5*%
%TO.N,SERIAL_OUT*%
X100584000Y-109093000D03*
%TO.P,J1,6,Pin_6*%
%TO.N,/CLK*%
X98044000Y-109093000D03*
%TO.P,J1,7,Pin_7*%
%TO.N,SERIAL_IN*%
X95504000Y-109093000D03*
%TO.P,J1,8,Pin_8*%
%TO.N,GND*%
X92964000Y-109093000D03*
%TD*%
D14*
%TO.N,SERIAL_IN*%
X95504000Y-109093000D02*
X97790000Y-106807000D01*
X97790000Y-106807000D02*
X100457000Y-106807000D01*
X100457000Y-106807000D02*
X101854000Y-105410000D01*
X101854000Y-105410000D02*
X101854000Y-102924000D01*
%TD*%
%TA.AperFunction,Conductor*%
%TO.N,GND*%
G36*
X107861527Y-96385360D02*
G01*
X107865571Y-96385903D01*
X107868447Y-96386296D01*
X107891692Y-96390477D01*
X107919781Y-96395530D01*
X107946130Y-96403367D01*
X107956546Y-96407773D01*
X107963922Y-96411491D01*
X107995101Y-96429903D01*
X108000691Y-96433204D01*
X108001017Y-96433396D01*
X108007835Y-96438062D01*
X108016729Y-96445061D01*
X108036314Y-96464354D01*
X108067529Y-96502810D01*
X108079844Y-96521088D01*
X112069601Y-103757646D01*
X112069611Y-103757670D01*
X112076161Y-103769546D01*
X112078488Y-103774221D01*
X112082245Y-103782639D01*
X112116130Y-103867996D01*
X112118549Y-103875421D01*
X112125499Y-103902420D01*
X112126968Y-103910095D01*
X112138505Y-104001199D01*
X112139281Y-104010410D01*
X112139500Y-104015617D01*
X112139500Y-107778434D01*
X112119815Y-107845473D01*
X112067011Y-107891228D01*
X111997853Y-107901172D01*
X111941189Y-107877701D01*
X111836330Y-107799203D01*
X111836328Y-107799202D01*
X111701482Y-107748908D01*
X111701483Y-107748908D01*
X111641883Y-107742501D01*
X111641881Y-107742500D01*
X111641873Y-107742500D01*
X111641864Y-107742500D01*
X109846129Y-107742500D01*
X109846123Y-107742501D01*
X109786516Y-107748908D01*
X109651671Y-107799202D01*
X109651664Y-107799206D01*
X109536455Y-107885452D01*
X109536452Y-107885455D01*
X109450206Y-108000664D01*
X109450203Y-108000669D01*
X109401189Y-108132083D01*
X109359317Y-108188016D01*
X109293853Y-108212433D01*
X109225580Y-108197581D01*
X109197326Y-108176430D01*
X109075402Y-108054506D01*
X109075395Y-108054501D01*
X108881834Y-107918967D01*
X108881830Y-107918965D01*
X108822348Y-107891228D01*
X108667663Y-107819097D01*
X108667659Y-107819096D01*
X108667655Y-107819094D01*
X108439413Y-107757938D01*
X108439403Y-107757936D01*
X108204001Y-107737341D01*
X108203999Y-107737341D01*
X107968596Y-107757936D01*
X107968586Y-107757938D01*
X107740344Y-107819094D01*
X107740335Y-107819098D01*
X107526171Y-107918964D01*
X107526169Y-107918965D01*
X107332597Y-108054505D01*
X107165505Y-108221597D01*
X107035575Y-108407158D01*
X106980998Y-108450783D01*
X106911500Y-108457977D01*
X106849145Y-108426454D01*
X106832425Y-108407158D01*
X106702494Y-108221597D01*
X106535402Y-108054506D01*
X106535395Y-108054501D01*
X106341834Y-107918967D01*
X106341830Y-107918965D01*
X106282348Y-107891228D01*
X106127663Y-107819097D01*
X106127659Y-107819096D01*
X106127655Y-107819094D01*
X105899413Y-107757938D01*
X105899403Y-107757936D01*
X105664001Y-107737341D01*
X105663999Y-107737341D01*
X105428596Y-107757936D01*
X105428586Y-107757938D01*
X105200344Y-107819094D01*
X105200335Y-107819098D01*
X104986171Y-107918964D01*
X104986169Y-107918965D01*
X104792597Y-108054505D01*
X104625505Y-108221597D01*
X104495575Y-108407158D01*
X104440998Y-108450783D01*
X104371500Y-108457977D01*
X104309145Y-108426454D01*
X104292425Y-108407158D01*
X104162494Y-108221597D01*
X103995402Y-108054506D01*
X103995395Y-108054501D01*
X103801834Y-107918967D01*
X103801830Y-107918965D01*
X103742348Y-107891228D01*
X103587663Y-107819097D01*
X103587659Y-107819096D01*
X103587655Y-107819094D01*
X103359413Y-107757938D01*
X103359403Y-107757936D01*
X103124001Y-107737341D01*
X103123999Y-107737341D01*
X102888596Y-107757936D01*
X102888586Y-107757938D01*
X102660344Y-107819094D01*
X102660335Y-107819098D01*
X102446171Y-107918964D01*
X102446169Y-107918965D01*
X102252597Y-108054505D01*
X102085505Y-108221597D01*
X101955575Y-108407158D01*
X101900998Y-108450783D01*
X101831500Y-108457977D01*
X101769145Y-108426454D01*
X101752425Y-108407158D01*
X101622494Y-108221597D01*
X101455402Y-108054506D01*
X101455395Y-108054501D01*
X101261834Y-107918967D01*
X101261830Y-107918965D01*
X101202348Y-107891228D01*
X101047663Y-107819097D01*
X101047659Y-107819096D01*
X101047655Y-107819094D01*
X100819413Y-107757938D01*
X100819403Y-107757936D01*
X100584001Y-107737341D01*
X100583999Y-107737341D01*
X100348596Y-107757936D01*
X100348586Y-107757938D01*
X100120344Y-107819094D01*
X100120335Y-107819098D01*
X99906171Y-107918964D01*
X99906169Y-107918965D01*
X99712597Y-108054505D01*
X99545505Y-108221597D01*
X99415575Y-108407158D01*
X99360998Y-108450783D01*
X99291500Y-108457977D01*
X99229145Y-108426454D01*
X99212425Y-108407158D01*
X99082494Y-108221597D01*
X98915402Y-108054506D01*
X98915395Y-108054501D01*
X98721834Y-107918967D01*
X98721830Y-107918965D01*
X98662348Y-107891228D01*
X98507663Y-107819097D01*
X98507659Y-107819096D01*
X98507655Y-107819094D01*
X98279413Y-107757938D01*
X98279403Y-107757936D01*
X98044001Y-107737341D01*
X98043612Y-107737341D01*
X98043446Y-107737292D01*
X98038606Y-107736869D01*
X98038691Y-107735896D01*
X97976573Y-107717656D01*
X97930818Y-107664852D01*
X97920874Y-107595694D01*
X97949899Y-107532138D01*
X97955931Y-107525660D01*
X98012772Y-107468819D01*
X98074095Y-107435334D01*
X98100453Y-107432500D01*
X100374257Y-107432500D01*
X100389877Y-107434224D01*
X100389904Y-107433939D01*
X100397660Y-107434671D01*
X100397667Y-107434673D01*
X100466814Y-107432500D01*
X100496350Y-107432500D01*
X100503228Y-107431630D01*
X100509041Y-107431172D01*
X100555627Y-107429709D01*
X100574869Y-107424117D01*
X100593912Y-107420174D01*
X100613792Y-107417664D01*
X100657122Y-107400507D01*
X100662646Y-107398617D01*
X100666396Y-107397527D01*
X100707390Y-107385618D01*
X100724629Y-107375422D01*
X100742103Y-107366862D01*
X100760727Y-107359488D01*
X100760727Y-107359487D01*
X100760732Y-107359486D01*
X100798449Y-107332082D01*
X100803305Y-107328892D01*
X100843420Y-107305170D01*
X100857589Y-107290999D01*
X100872379Y-107278368D01*
X100888587Y-107266594D01*
X100918299Y-107230676D01*
X100922212Y-107226376D01*
X102237787Y-105910802D01*
X102250042Y-105900986D01*
X102249859Y-105900764D01*
X102255866Y-105895792D01*
X102255877Y-105895786D01*
X102286775Y-105862882D01*
X102303227Y-105845364D01*
X102313671Y-105834918D01*
X102324120Y-105824471D01*
X102328379Y-105818978D01*
X102332152Y-105814561D01*
X102364062Y-105780582D01*
X102373713Y-105763024D01*
X102384396Y-105746761D01*
X102396673Y-105730936D01*
X102415185Y-105688153D01*
X102417738Y-105682941D01*
X102440197Y-105642092D01*
X102445180Y-105622680D01*
X102451481Y-105604280D01*
X102459437Y-105585896D01*
X102466729Y-105539852D01*
X102467906Y-105534171D01*
X102479500Y-105489019D01*
X102479500Y-105468983D01*
X102481027Y-105449582D01*
X102484160Y-105429804D01*
X102479775Y-105383415D01*
X102479500Y-105377577D01*
X102479500Y-103897690D01*
X102499185Y-103830651D01*
X102519962Y-103806053D01*
X102670762Y-103668581D01*
X102755046Y-103556971D01*
X102811155Y-103515335D01*
X102880867Y-103510644D01*
X102942049Y-103544386D01*
X102952954Y-103556971D01*
X103037237Y-103668581D01*
X103187958Y-103805980D01*
X103187960Y-103805982D01*
X103256374Y-103848342D01*
X103361363Y-103913348D01*
X103551544Y-103987024D01*
X103752024Y-104024500D01*
X103752026Y-104024500D01*
X103955974Y-104024500D01*
X103955976Y-104024500D01*
X104156456Y-103987024D01*
X104346637Y-103913348D01*
X104520041Y-103805981D01*
X104670764Y-103668579D01*
X104793673Y-103505821D01*
X104884582Y-103323250D01*
X104940397Y-103127083D01*
X104959215Y-102924000D01*
X104940397Y-102720917D01*
X104884582Y-102524750D01*
X104875859Y-102507232D01*
X104840272Y-102435764D01*
X104793673Y-102342179D01*
X104670764Y-102179421D01*
X104670762Y-102179418D01*
X104520042Y-102042019D01*
X104508723Y-102035011D01*
X104499704Y-102029426D01*
X104453069Y-101977401D01*
X104441964Y-101908419D01*
X104469916Y-101844385D01*
X104499703Y-101818573D01*
X104520041Y-101805981D01*
X104648510Y-101688865D01*
X104711314Y-101658249D01*
X104780701Y-101666446D01*
X104834641Y-101710856D01*
X104847476Y-101735200D01*
X104871594Y-101796650D01*
X104917607Y-101913888D01*
X105045041Y-102134612D01*
X105203950Y-102333877D01*
X105390783Y-102507232D01*
X105601366Y-102650805D01*
X105601371Y-102650807D01*
X105601372Y-102650808D01*
X105601373Y-102650809D01*
X105723328Y-102709538D01*
X105830992Y-102761387D01*
X105830993Y-102761387D01*
X105830996Y-102761389D01*
X106074542Y-102836513D01*
X106326565Y-102874500D01*
X106581435Y-102874500D01*
X106833458Y-102836513D01*
X107077004Y-102761389D01*
X107306634Y-102650805D01*
X107517217Y-102507232D01*
X107704050Y-102333877D01*
X107862959Y-102134612D01*
X107990393Y-101913888D01*
X108083508Y-101676637D01*
X108140222Y-101428157D01*
X108159268Y-101174000D01*
X108140222Y-100919843D01*
X108083508Y-100671363D01*
X107990393Y-100434112D01*
X107862959Y-100213388D01*
X107704050Y-100014123D01*
X107517217Y-99840768D01*
X107306634Y-99697195D01*
X107306630Y-99697193D01*
X107306627Y-99697191D01*
X107306626Y-99697190D01*
X107077006Y-99586612D01*
X107077008Y-99586612D01*
X106833466Y-99511489D01*
X106833462Y-99511488D01*
X106833458Y-99511487D01*
X106712231Y-99493214D01*
X106581440Y-99473500D01*
X106581435Y-99473500D01*
X106326565Y-99473500D01*
X106326559Y-99473500D01*
X106169609Y-99497157D01*
X106074542Y-99511487D01*
X106074539Y-99511488D01*
X106074533Y-99511489D01*
X105830992Y-99586612D01*
X105601373Y-99697190D01*
X105601372Y-99697191D01*
X105390782Y-99840768D01*
X105203952Y-100014121D01*
X105203950Y-100014123D01*
X105045041Y-100213388D01*
X104987556Y-100312955D01*
X104936989Y-100361171D01*
X104868382Y-100374394D01*
X104803517Y-100348425D01*
X104781215Y-100325682D01*
X104670762Y-100179418D01*
X104520041Y-100042019D01*
X104520039Y-100042017D01*
X104346642Y-99934655D01*
X104346635Y-99934651D01*
X104251546Y-99897814D01*
X104156456Y-99860976D01*
X103955976Y-99823500D01*
X103752024Y-99823500D01*
X103551544Y-99860976D01*
X103551541Y-99860976D01*
X103551541Y-99860977D01*
X103361364Y-99934651D01*
X103361357Y-99934655D01*
X103187960Y-100042017D01*
X103187958Y-100042019D01*
X103037237Y-100179419D01*
X102952954Y-100291028D01*
X102896845Y-100332664D01*
X102827133Y-100337355D01*
X102765951Y-100303613D01*
X102755046Y-100291028D01*
X102717186Y-100240894D01*
X102670764Y-100179421D01*
X102520041Y-100042019D01*
X102520039Y-100042017D01*
X102346642Y-99934655D01*
X102346635Y-99934651D01*
X102251546Y-99897814D01*
X102156456Y-99860976D01*
X101955976Y-99823500D01*
X101752024Y-99823500D01*
X101551544Y-99860976D01*
X101551541Y-99860976D01*
X101551541Y-99860977D01*
X101361364Y-99934651D01*
X101361357Y-99934655D01*
X101187960Y-100042017D01*
X101187958Y-100042019D01*
X101037237Y-100179418D01*
X100914327Y-100342178D01*
X100827335Y-100516881D01*
X100779832Y-100568118D01*
X100712169Y-100585539D01*
X100645829Y-100563613D01*
X100608948Y-100523609D01*
X100608579Y-100522971D01*
X100251953Y-100879598D01*
X100239165Y-100798852D01*
X100181641Y-100685955D01*
X100092045Y-100596359D01*
X99979148Y-100538835D01*
X99898401Y-100526046D01*
X100256196Y-100168250D01*
X100119351Y-100107323D01*
X99943759Y-100070000D01*
X99764241Y-100070000D01*
X99588648Y-100107323D01*
X99451802Y-100168249D01*
X99451802Y-100168250D01*
X99809599Y-100526046D01*
X99728852Y-100538835D01*
X99615955Y-100596359D01*
X99526359Y-100685955D01*
X99468835Y-100798852D01*
X99456046Y-100879599D01*
X99099419Y-100522972D01*
X99066286Y-100580362D01*
X99064372Y-100579257D01*
X99025715Y-100624715D01*
X98958861Y-100645020D01*
X98891642Y-100625957D01*
X98845400Y-100573580D01*
X98842284Y-100566328D01*
X98790393Y-100434112D01*
X98662959Y-100213388D01*
X98504050Y-100014123D01*
X98317217Y-99840768D01*
X98106634Y-99697195D01*
X98106630Y-99697193D01*
X98106627Y-99697191D01*
X98106626Y-99697190D01*
X97877006Y-99586612D01*
X97877008Y-99586612D01*
X97633466Y-99511489D01*
X97633462Y-99511488D01*
X97633458Y-99511487D01*
X97512231Y-99493214D01*
X97381440Y-99473500D01*
X97381435Y-99473500D01*
X97126565Y-99473500D01*
X97126559Y-99473500D01*
X96969609Y-99497157D01*
X96874542Y-99511487D01*
X96874539Y-99511488D01*
X96874533Y-99511489D01*
X96630992Y-99586612D01*
X96401373Y-99697190D01*
X96401372Y-99697191D01*
X96190782Y-99840768D01*
X96003952Y-100014121D01*
X96003950Y-100014123D01*
X95845041Y-100213388D01*
X95717608Y-100434109D01*
X95624492Y-100671362D01*
X95624490Y-100671369D01*
X95567777Y-100919845D01*
X95548732Y-101173995D01*
X95548732Y-101174004D01*
X95567777Y-101428154D01*
X95622652Y-101668579D01*
X95624492Y-101676637D01*
X95717607Y-101913888D01*
X95845041Y-102134612D01*
X96003950Y-102333877D01*
X96190783Y-102507232D01*
X96401366Y-102650805D01*
X96401371Y-102650807D01*
X96401372Y-102650808D01*
X96401373Y-102650809D01*
X96523328Y-102709538D01*
X96630992Y-102761387D01*
X96630993Y-102761387D01*
X96630996Y-102761389D01*
X96874542Y-102836513D01*
X97126565Y-102874500D01*
X97381435Y-102874500D01*
X97633458Y-102836513D01*
X97877004Y-102761389D01*
X98106634Y-102650805D01*
X98317217Y-102507232D01*
X98504050Y-102333877D01*
X98662959Y-102134612D01*
X98790393Y-101913888D01*
X98883508Y-101676637D01*
X98940222Y-101428157D01*
X98940222Y-101428154D01*
X98940223Y-101428151D01*
X98940423Y-101426829D01*
X98940624Y-101426395D01*
X98941255Y-101423633D01*
X98941846Y-101423767D01*
X98969877Y-101363471D01*
X99028910Y-101326096D01*
X99079224Y-101322368D01*
X99099419Y-101325026D01*
X99456046Y-100968400D01*
X99468835Y-101049148D01*
X99526359Y-101162045D01*
X99615955Y-101251641D01*
X99728852Y-101309165D01*
X99809599Y-101321953D01*
X99451803Y-101679748D01*
X99452536Y-101683704D01*
X99496807Y-101721333D01*
X99517129Y-101788182D01*
X99498084Y-101855406D01*
X99445718Y-101901662D01*
X99437930Y-101904989D01*
X99361370Y-101934648D01*
X99361357Y-101934655D01*
X99187960Y-102042017D01*
X99187958Y-102042019D01*
X99037237Y-102179418D01*
X98914327Y-102342178D01*
X98823422Y-102524739D01*
X98823417Y-102524752D01*
X98767602Y-102720917D01*
X98748785Y-102923999D01*
X98748785Y-102924000D01*
X98767602Y-103127082D01*
X98823417Y-103323247D01*
X98823422Y-103323260D01*
X98914327Y-103505821D01*
X99037237Y-103668581D01*
X99187958Y-103805980D01*
X99187960Y-103805982D01*
X99256374Y-103848342D01*
X99361363Y-103913348D01*
X99551544Y-103987024D01*
X99752024Y-104024500D01*
X99752026Y-104024500D01*
X99955974Y-104024500D01*
X99955976Y-104024500D01*
X100156456Y-103987024D01*
X100346637Y-103913348D01*
X100520041Y-103805981D01*
X100670764Y-103668579D01*
X100755046Y-103556970D01*
X100811155Y-103515335D01*
X100880867Y-103510644D01*
X100942049Y-103544386D01*
X100952954Y-103556971D01*
X101037237Y-103668581D01*
X101188038Y-103806053D01*
X101224320Y-103865764D01*
X101228500Y-103897690D01*
X101228500Y-105099547D01*
X101208815Y-105166586D01*
X101192181Y-105187228D01*
X100234228Y-106145181D01*
X100172905Y-106178666D01*
X100146547Y-106181500D01*
X97872737Y-106181500D01*
X97857120Y-106179776D01*
X97857093Y-106180062D01*
X97849331Y-106179327D01*
X97780203Y-106181500D01*
X97750650Y-106181500D01*
X97749929Y-106181590D01*
X97743757Y-106182369D01*
X97737945Y-106182826D01*
X97691373Y-106184290D01*
X97691372Y-106184290D01*
X97672129Y-106189881D01*
X97653079Y-106193825D01*
X97633211Y-106196334D01*
X97633209Y-106196335D01*
X97589884Y-106213488D01*
X97584357Y-106215380D01*
X97539610Y-106228381D01*
X97539609Y-106228382D01*
X97522367Y-106238579D01*
X97504899Y-106247137D01*
X97486269Y-106254513D01*
X97486267Y-106254514D01*
X97448576Y-106281898D01*
X97443694Y-106285105D01*
X97403579Y-106308830D01*
X97389408Y-106323000D01*
X97374623Y-106335628D01*
X97358412Y-106347407D01*
X97328709Y-106383310D01*
X97324777Y-106387631D01*
X95959646Y-107752761D01*
X95898323Y-107786246D01*
X95839873Y-107784855D01*
X95739408Y-107757937D01*
X95504001Y-107737341D01*
X95503999Y-107737341D01*
X95268596Y-107757936D01*
X95268586Y-107757938D01*
X95040344Y-107819094D01*
X95040335Y-107819098D01*
X94826171Y-107918964D01*
X94826169Y-107918965D01*
X94632597Y-108054505D01*
X94465505Y-108221597D01*
X94329965Y-108415169D01*
X94329964Y-108415171D01*
X94230098Y-108629335D01*
X94230095Y-108629342D01*
X94222623Y-108657229D01*
X94186257Y-108716890D01*
X94123410Y-108747418D01*
X94054035Y-108739123D01*
X94000157Y-108694637D01*
X93991848Y-108680407D01*
X93906660Y-108509328D01*
X93783359Y-108346050D01*
X93632163Y-108208217D01*
X93632157Y-108208213D01*
X93458206Y-108100507D01*
X93458200Y-108100504D01*
X93267417Y-108026595D01*
X93267407Y-108026592D01*
X93214001Y-108016608D01*
X93214000Y-108016609D01*
X93214000Y-108657498D01*
X93106315Y-108608320D01*
X92999763Y-108593000D01*
X92928237Y-108593000D01*
X92821685Y-108608320D01*
X92714000Y-108657498D01*
X92714000Y-108016609D01*
X92713998Y-108016608D01*
X92660592Y-108026592D01*
X92660582Y-108026595D01*
X92469799Y-108100504D01*
X92469793Y-108100507D01*
X92295842Y-108208213D01*
X92295836Y-108208217D01*
X92144640Y-108346050D01*
X92021339Y-108509328D01*
X91930140Y-108692477D01*
X91887312Y-108842999D01*
X91887313Y-108843000D01*
X92530314Y-108843000D01*
X92504507Y-108883156D01*
X92464000Y-109021111D01*
X92464000Y-109164889D01*
X92504507Y-109302844D01*
X92530314Y-109343000D01*
X91887313Y-109343000D01*
X91930140Y-109493522D01*
X92021339Y-109676671D01*
X92144640Y-109839949D01*
X92295836Y-109977782D01*
X92295842Y-109977786D01*
X92469793Y-110085492D01*
X92469808Y-110085499D01*
X92660573Y-110159402D01*
X92714000Y-110169389D01*
X92714000Y-109528501D01*
X92821685Y-109577680D01*
X92928237Y-109593000D01*
X92999763Y-109593000D01*
X93106315Y-109577680D01*
X93214000Y-109528501D01*
X93214000Y-110169389D01*
X93267426Y-110159402D01*
X93458191Y-110085499D01*
X93458206Y-110085492D01*
X93632157Y-109977786D01*
X93632163Y-109977782D01*
X93783359Y-109839949D01*
X93906662Y-109676669D01*
X93991848Y-109505593D01*
X94039351Y-109454355D01*
X94107014Y-109436934D01*
X94173354Y-109458859D01*
X94217309Y-109513171D01*
X94222623Y-109528770D01*
X94230095Y-109556658D01*
X94230096Y-109556660D01*
X94230097Y-109556663D01*
X94286057Y-109676669D01*
X94329965Y-109770830D01*
X94329967Y-109770834D01*
X94438281Y-109925521D01*
X94465505Y-109964401D01*
X94632599Y-110131495D01*
X94729384Y-110199265D01*
X94826165Y-110267032D01*
X94826167Y-110267033D01*
X94826170Y-110267035D01*
X95040337Y-110366903D01*
X95268592Y-110428063D01*
X95445034Y-110443500D01*
X95503999Y-110448659D01*
X95504000Y-110448659D01*
X95504001Y-110448659D01*
X95562966Y-110443500D01*
X95739408Y-110428063D01*
X95967663Y-110366903D01*
X96181830Y-110267035D01*
X96375401Y-110131495D01*
X96542495Y-109964401D01*
X96672425Y-109778842D01*
X96727002Y-109735217D01*
X96796500Y-109728023D01*
X96858855Y-109759546D01*
X96875575Y-109778842D01*
X97005500Y-109964395D01*
X97005505Y-109964401D01*
X97172599Y-110131495D01*
X97269384Y-110199265D01*
X97366165Y-110267032D01*
X97366167Y-110267033D01*
X97366170Y-110267035D01*
X97580337Y-110366903D01*
X97808592Y-110428063D01*
X97985034Y-110443500D01*
X98043999Y-110448659D01*
X98044000Y-110448659D01*
X98044001Y-110448659D01*
X98102966Y-110443500D01*
X98279408Y-110428063D01*
X98507663Y-110366903D01*
X98721830Y-110267035D01*
X98915401Y-110131495D01*
X99082495Y-109964401D01*
X99212425Y-109778842D01*
X99267002Y-109735217D01*
X99336500Y-109728023D01*
X99398855Y-109759546D01*
X99415575Y-109778842D01*
X99545500Y-109964395D01*
X99545505Y-109964401D01*
X99712599Y-110131495D01*
X99809384Y-110199265D01*
X99906165Y-110267032D01*
X99906167Y-110267033D01*
X99906170Y-110267035D01*
X100120337Y-110366903D01*
X100348592Y-110428063D01*
X100525034Y-110443500D01*
X100583999Y-110448659D01*
X100584000Y-110448659D01*
X100584001Y-110448659D01*
X100642966Y-110443500D01*
X100819408Y-110428063D01*
X101047663Y-110366903D01*
X101261830Y-110267035D01*
X101455401Y-110131495D01*
X101622495Y-109964401D01*
X101752425Y-109778842D01*
X101807002Y-109735217D01*
X101876500Y-109728023D01*
X101938855Y-109759546D01*
X101955575Y-109778842D01*
X102085500Y-109964395D01*
X102085505Y-109964401D01*
X102252599Y-110131495D01*
X102349384Y-110199265D01*
X102446165Y-110267032D01*
X102446167Y-110267033D01*
X102446170Y-110267035D01*
X102660337Y-110366903D01*
X102888592Y-110428063D01*
X103065034Y-110443500D01*
X103123999Y-110448659D01*
X103124000Y-110448659D01*
X103124001Y-110448659D01*
X103182966Y-110443500D01*
X103359408Y-110428063D01*
X103587663Y-110366903D01*
X103801830Y-110267035D01*
X103995401Y-110131495D01*
X104162495Y-109964401D01*
X104292425Y-109778842D01*
X104347002Y-109735217D01*
X104416500Y-109728023D01*
X104478855Y-109759546D01*
X104495575Y-109778842D01*
X104625500Y-109964395D01*
X104625505Y-109964401D01*
X104792599Y-110131495D01*
X104889384Y-110199265D01*
X104986165Y-110267032D01*
X104986167Y-110267033D01*
X104986170Y-110267035D01*
X105200337Y-110366903D01*
X105428592Y-110428063D01*
X105605034Y-110443500D01*
X105663999Y-110448659D01*
X105664000Y-110448659D01*
X105664001Y-110448659D01*
X105722966Y-110443500D01*
X105899408Y-110428063D01*
X106127663Y-110366903D01*
X106341830Y-110267035D01*
X106535401Y-110131495D01*
X106702495Y-109964401D01*
X106832425Y-109778842D01*
X106887002Y-109735217D01*
X106956500Y-109728023D01*
X107018855Y-109759546D01*
X107035575Y-109778842D01*
X107165500Y-109964395D01*
X107165505Y-109964401D01*
X107332599Y-110131495D01*
X107429384Y-110199265D01*
X107526165Y-110267032D01*
X107526167Y-110267033D01*
X107526170Y-110267035D01*
X107740337Y-110366903D01*
X107968592Y-110428063D01*
X108145034Y-110443500D01*
X108203999Y-110448659D01*
X108204000Y-110448659D01*
X108204001Y-110448659D01*
X108262966Y-110443500D01*
X108439408Y-110428063D01*
X108667663Y-110366903D01*
X108881830Y-110267035D01*
X109075401Y-110131495D01*
X109197329Y-110009566D01*
X109258648Y-109976084D01*
X109328340Y-109981068D01*
X109384274Y-110022939D01*
X109401189Y-110053917D01*
X109450202Y-110185328D01*
X109450206Y-110185335D01*
X109536452Y-110300544D01*
X109536455Y-110300547D01*
X109651664Y-110386793D01*
X109651671Y-110386797D01*
X109786517Y-110437091D01*
X109786516Y-110437091D01*
X109793444Y-110437835D01*
X109846127Y-110443500D01*
X111641872Y-110443499D01*
X111701483Y-110437091D01*
X111836331Y-110386796D01*
X111941190Y-110308298D01*
X112006652Y-110283881D01*
X112074925Y-110298732D01*
X112124331Y-110348137D01*
X112139500Y-110407565D01*
X112139500Y-112630804D01*
X112139109Y-112637763D01*
X112136526Y-112660646D01*
X112126048Y-112740127D01*
X112120150Y-112764886D01*
X112108211Y-112798995D01*
X112106970Y-112802246D01*
X112084502Y-112856472D01*
X112074936Y-112874985D01*
X112053070Y-112909779D01*
X112049760Y-112914537D01*
X112012975Y-112962474D01*
X112007623Y-112968576D01*
X111974277Y-113001923D01*
X111968174Y-113007275D01*
X111920243Y-113044056D01*
X111915484Y-113047367D01*
X111880677Y-113069239D01*
X111862166Y-113078804D01*
X111807956Y-113101266D01*
X111804706Y-113102506D01*
X111770592Y-113114448D01*
X111745830Y-113120347D01*
X111666295Y-113130832D01*
X111643474Y-113133408D01*
X111636515Y-113133799D01*
X91943492Y-113133799D01*
X91936536Y-113133408D01*
X91930151Y-113132687D01*
X91913640Y-113130824D01*
X91834174Y-113120348D01*
X91809412Y-113114449D01*
X91775260Y-113102494D01*
X91772033Y-113101262D01*
X91717837Y-113078807D01*
X91699323Y-113069240D01*
X91664503Y-113047358D01*
X91659746Y-113044049D01*
X91611833Y-113007282D01*
X91605732Y-113001931D01*
X91599620Y-112995820D01*
X91572359Y-112968559D01*
X91567021Y-112962472D01*
X91530236Y-112914536D01*
X91526949Y-112909811D01*
X91505057Y-112874974D01*
X91495493Y-112856465D01*
X91473020Y-112802225D01*
X91471818Y-112799077D01*
X91459845Y-112764873D01*
X91453952Y-112740138D01*
X91443479Y-112660691D01*
X91443474Y-112660646D01*
X91440890Y-112637751D01*
X91440500Y-112630801D01*
X91440500Y-104015597D01*
X91440718Y-104010405D01*
X91441486Y-104001258D01*
X91453060Y-103909899D01*
X91454516Y-103902287D01*
X91461385Y-103875592D01*
X91463795Y-103868192D01*
X91497964Y-103782106D01*
X91501383Y-103774447D01*
X91503693Y-103769808D01*
X91522753Y-103735248D01*
X91522801Y-103735148D01*
X95502252Y-96517282D01*
X95506725Y-96510360D01*
X95509550Y-96506543D01*
X95511010Y-96504598D01*
X95543543Y-96464478D01*
X95563151Y-96445154D01*
X95572422Y-96437859D01*
X95579206Y-96433218D01*
X95615786Y-96411621D01*
X95623145Y-96407913D01*
X95634040Y-96403307D01*
X95660396Y-96395476D01*
X95695919Y-96389098D01*
X95710812Y-96386425D01*
X95718831Y-96385350D01*
X95727075Y-96384800D01*
X107853266Y-96384800D01*
X107861527Y-96385360D01*
G37*
%TD.AperFunction*%
%TA.AperFunction,Conductor*%
G36*
X100608579Y-101325026D02*
G01*
X100608948Y-101324388D01*
X100659515Y-101276173D01*
X100728123Y-101262951D01*
X100792987Y-101288919D01*
X100827335Y-101331118D01*
X100914325Y-101505819D01*
X101037237Y-101668581D01*
X101166898Y-101786782D01*
X101187959Y-101805981D01*
X101208294Y-101818572D01*
X101208296Y-101818573D01*
X101254931Y-101870601D01*
X101266035Y-101939583D01*
X101238082Y-102003617D01*
X101208296Y-102029427D01*
X101187957Y-102042020D01*
X101037237Y-102179419D01*
X100952954Y-102291028D01*
X100896845Y-102332664D01*
X100827133Y-102337355D01*
X100765951Y-102303613D01*
X100755046Y-102291028D01*
X100670762Y-102179419D01*
X100520041Y-102042019D01*
X100520039Y-102042017D01*
X100346642Y-101934655D01*
X100346641Y-101934654D01*
X100346637Y-101934652D01*
X100346632Y-101934650D01*
X100346626Y-101934647D01*
X100270070Y-101904989D01*
X100214668Y-101862417D01*
X100191078Y-101796650D01*
X100206789Y-101728569D01*
X100256050Y-101680534D01*
X100256195Y-101679748D01*
X99898401Y-101321953D01*
X99979148Y-101309165D01*
X100092045Y-101251641D01*
X100181641Y-101162045D01*
X100239165Y-101049148D01*
X100251953Y-100968400D01*
X100608579Y-101325026D01*
G37*
%TD.AperFunction*%
%TD*%
M02*
