%TF.GenerationSoftware,KiCad,Pcbnew,7.0.8*%
%TF.CreationDate,2023-10-20T13:28:24-04:00*%
%TF.ProjectId,flipper-zero-gbc-link-adapter,666c6970-7065-4722-9d7a-65726f2d6762,rev?*%
%TF.SameCoordinates,Original*%
%TF.FileFunction,Legend,Bot*%
%TF.FilePolarity,Positive*%
%FSLAX46Y46*%
G04 Gerber Fmt 4.6, Leading zero omitted, Abs format (unit mm)*
G04 Created by KiCad (PCBNEW 7.0.8) date 2023-10-20 13:28:24*
%MOMM*%
%LPD*%
G01*
G04 APERTURE LIST*
%ADD10C,0.300000*%
G04 APERTURE END LIST*
D10*
G36*
X107209622Y-97806878D02*
G01*
X107572103Y-97806878D01*
X107572103Y-97567716D01*
X106567496Y-97567716D01*
X106567496Y-97806878D01*
X106929976Y-97806878D01*
X106929976Y-98843250D01*
X107209622Y-98843250D01*
X107209622Y-97806878D01*
G37*
G36*
X106431410Y-97567716D02*
G01*
X106151764Y-97567716D01*
X106151764Y-98046041D01*
X105608043Y-98046041D01*
X105608043Y-97567716D01*
X105328397Y-97567716D01*
X105328397Y-98843250D01*
X105608043Y-98843250D01*
X105608043Y-98285203D01*
X106151764Y-98285203D01*
X106151764Y-98843250D01*
X106431410Y-98843250D01*
X106431410Y-97567716D01*
G37*
G36*
X105081137Y-97567716D02*
G01*
X104801180Y-97567716D01*
X104801180Y-98843250D01*
X105081137Y-98843250D01*
X105081137Y-97567716D01*
G37*
G36*
X103921448Y-97890959D02*
G01*
X103930386Y-97880566D01*
X103940074Y-97870873D01*
X103950511Y-97861881D01*
X103961698Y-97853590D01*
X103973633Y-97845999D01*
X103986319Y-97839109D01*
X103999753Y-97832920D01*
X104013937Y-97827431D01*
X104028398Y-97822614D01*
X104042664Y-97818439D01*
X104056736Y-97814907D01*
X104070613Y-97812017D01*
X104084296Y-97809769D01*
X104097784Y-97808163D01*
X104111077Y-97807199D01*
X104124176Y-97806878D01*
X104137617Y-97807221D01*
X104151237Y-97808249D01*
X104165035Y-97809963D01*
X104179013Y-97812362D01*
X104187080Y-97814041D01*
X104200964Y-97817562D01*
X104214550Y-97821858D01*
X104227838Y-97826928D01*
X104240828Y-97832774D01*
X104248117Y-97836462D01*
X104260144Y-97843615D01*
X104271159Y-97851721D01*
X104281160Y-97860781D01*
X104290147Y-97870795D01*
X104294828Y-97876945D01*
X104301745Y-97888366D01*
X104306962Y-97900830D01*
X104310481Y-97914337D01*
X104312145Y-97926745D01*
X104312579Y-97937670D01*
X104311907Y-97951650D01*
X104309893Y-97964782D01*
X104306535Y-97977068D01*
X104300450Y-97991235D01*
X104292266Y-98004080D01*
X104281984Y-98015601D01*
X104272248Y-98023865D01*
X104269604Y-98025799D01*
X104258437Y-98033288D01*
X104246579Y-98040494D01*
X104234030Y-98047418D01*
X104220791Y-98054060D01*
X104206860Y-98060419D01*
X104192238Y-98066497D01*
X104176926Y-98072292D01*
X104164988Y-98076453D01*
X104160922Y-98077805D01*
X104148573Y-98081833D01*
X104136048Y-98085862D01*
X104123349Y-98089891D01*
X104110474Y-98093920D01*
X104097424Y-98097949D01*
X104084198Y-98101978D01*
X104070798Y-98106007D01*
X104057223Y-98110036D01*
X104043472Y-98114064D01*
X104029546Y-98118093D01*
X104020165Y-98120779D01*
X104006122Y-98124967D01*
X103992255Y-98129472D01*
X103978562Y-98134294D01*
X103965045Y-98139435D01*
X103951703Y-98144892D01*
X103938537Y-98150667D01*
X103925545Y-98156760D01*
X103912729Y-98163170D01*
X103900087Y-98169897D01*
X103887621Y-98176942D01*
X103879408Y-98181815D01*
X103867343Y-98189466D01*
X103855672Y-98197588D01*
X103844396Y-98206180D01*
X103833514Y-98215243D01*
X103823026Y-98224777D01*
X103812931Y-98234782D01*
X103803232Y-98245257D01*
X103793926Y-98256203D01*
X103785014Y-98267620D01*
X103776497Y-98279508D01*
X103771037Y-98287695D01*
X103763301Y-98300526D01*
X103756327Y-98314145D01*
X103750113Y-98328553D01*
X103744660Y-98343748D01*
X103739968Y-98359733D01*
X103736036Y-98376505D01*
X103732866Y-98394065D01*
X103730457Y-98412414D01*
X103729273Y-98425085D01*
X103728428Y-98438106D01*
X103727920Y-98451477D01*
X103727751Y-98465198D01*
X103727906Y-98478329D01*
X103728369Y-98491250D01*
X103729142Y-98503961D01*
X103730223Y-98516464D01*
X103732425Y-98534826D01*
X103735321Y-98552716D01*
X103738913Y-98570137D01*
X103743200Y-98587086D01*
X103748182Y-98603564D01*
X103753860Y-98619572D01*
X103760232Y-98635109D01*
X103767300Y-98650176D01*
X103774959Y-98664713D01*
X103783106Y-98678779D01*
X103791739Y-98692375D01*
X103800860Y-98705499D01*
X103810467Y-98718153D01*
X103820562Y-98730337D01*
X103831144Y-98742049D01*
X103842214Y-98753291D01*
X103853770Y-98764062D01*
X103865814Y-98774362D01*
X103874114Y-98780968D01*
X103886915Y-98790480D01*
X103900093Y-98799517D01*
X103913650Y-98808078D01*
X103927584Y-98816162D01*
X103941896Y-98823770D01*
X103956585Y-98830901D01*
X103971652Y-98837557D01*
X103987097Y-98843736D01*
X104002920Y-98849439D01*
X104019120Y-98854666D01*
X104030130Y-98857886D01*
X104046859Y-98862394D01*
X104063762Y-98866458D01*
X104080841Y-98870079D01*
X104098095Y-98873257D01*
X104115524Y-98875991D01*
X104133129Y-98878282D01*
X104150908Y-98880129D01*
X104168863Y-98881533D01*
X104186993Y-98882494D01*
X104205298Y-98883011D01*
X104217599Y-98883110D01*
X104232983Y-98882962D01*
X104248229Y-98882516D01*
X104263336Y-98881774D01*
X104278304Y-98880735D01*
X104293134Y-98879400D01*
X104307825Y-98877767D01*
X104322377Y-98875838D01*
X104336791Y-98873612D01*
X104351066Y-98871089D01*
X104365202Y-98868269D01*
X104379199Y-98865153D01*
X104393058Y-98861739D01*
X104406779Y-98858029D01*
X104420360Y-98854022D01*
X104433803Y-98849719D01*
X104447107Y-98845118D01*
X104460286Y-98840225D01*
X104473353Y-98834968D01*
X104486309Y-98829346D01*
X104499152Y-98823358D01*
X104511883Y-98817006D01*
X104524503Y-98810289D01*
X104537010Y-98803207D01*
X104549406Y-98795760D01*
X104561689Y-98787948D01*
X104573861Y-98779771D01*
X104585921Y-98771229D01*
X104597869Y-98762322D01*
X104609705Y-98753050D01*
X104621429Y-98743414D01*
X104633041Y-98733412D01*
X104644541Y-98723045D01*
X104445239Y-98503813D01*
X104436984Y-98514385D01*
X104428335Y-98524497D01*
X104419292Y-98534150D01*
X104409855Y-98543343D01*
X104400024Y-98552075D01*
X104389798Y-98560348D01*
X104379179Y-98568162D01*
X104368165Y-98575515D01*
X104356757Y-98582409D01*
X104344955Y-98588842D01*
X104336868Y-98592876D01*
X104324513Y-98598441D01*
X104312086Y-98603459D01*
X104299588Y-98607930D01*
X104287019Y-98611853D01*
X104274378Y-98615228D01*
X104261667Y-98618057D01*
X104248884Y-98620337D01*
X104236030Y-98622071D01*
X104223105Y-98623257D01*
X104210109Y-98623895D01*
X104201405Y-98624017D01*
X104188538Y-98623732D01*
X104175626Y-98622879D01*
X104162671Y-98621455D01*
X104149672Y-98619463D01*
X104136630Y-98616901D01*
X104132272Y-98615920D01*
X104119445Y-98612600D01*
X104107121Y-98608709D01*
X104095301Y-98604250D01*
X104082147Y-98598328D01*
X104069679Y-98591631D01*
X104057954Y-98584129D01*
X104047301Y-98575792D01*
X104037722Y-98566622D01*
X104029215Y-98556616D01*
X104024836Y-98550524D01*
X104018162Y-98539072D01*
X104013128Y-98526784D01*
X104009732Y-98513663D01*
X104007976Y-98499706D01*
X104007708Y-98491357D01*
X104008395Y-98477338D01*
X104010453Y-98464089D01*
X104013883Y-98451608D01*
X104018686Y-98439896D01*
X104024860Y-98428953D01*
X104032407Y-98418779D01*
X104041326Y-98409373D01*
X104051617Y-98400736D01*
X104062945Y-98392567D01*
X104074973Y-98384718D01*
X104087702Y-98377191D01*
X104101131Y-98369985D01*
X104115262Y-98363100D01*
X104130092Y-98356536D01*
X104141675Y-98351824D01*
X104153653Y-98347292D01*
X104161856Y-98344371D01*
X104174389Y-98339992D01*
X104187113Y-98335613D01*
X104200029Y-98331234D01*
X104213137Y-98326854D01*
X104226436Y-98322475D01*
X104239926Y-98318096D01*
X104253609Y-98313717D01*
X104267483Y-98309338D01*
X104281548Y-98304958D01*
X104295805Y-98300579D01*
X104305416Y-98297660D01*
X104319801Y-98293138D01*
X104333994Y-98288332D01*
X104347996Y-98283241D01*
X104361806Y-98277866D01*
X104375424Y-98272206D01*
X104388851Y-98266261D01*
X104402086Y-98260032D01*
X104415130Y-98253518D01*
X104427982Y-98246719D01*
X104440642Y-98239635D01*
X104448976Y-98234755D01*
X104461216Y-98227121D01*
X104473062Y-98219048D01*
X104484513Y-98210538D01*
X104495571Y-98201590D01*
X104506234Y-98192204D01*
X104516503Y-98182380D01*
X104526378Y-98172118D01*
X104535859Y-98161418D01*
X104544946Y-98150280D01*
X104553639Y-98138705D01*
X104559215Y-98130744D01*
X104567062Y-98118294D01*
X104574137Y-98105115D01*
X104580440Y-98091208D01*
X104585972Y-98076574D01*
X104590731Y-98061211D01*
X104594719Y-98045120D01*
X104597935Y-98028301D01*
X104600379Y-98010754D01*
X104602052Y-97992479D01*
X104602738Y-97979892D01*
X104603081Y-97966980D01*
X104603124Y-97960403D01*
X104602967Y-97947696D01*
X104602496Y-97935189D01*
X104601201Y-97916802D01*
X104599201Y-97898863D01*
X104596494Y-97881374D01*
X104593081Y-97864333D01*
X104588962Y-97847742D01*
X104584136Y-97831599D01*
X104578605Y-97815905D01*
X104572367Y-97800660D01*
X104565423Y-97785864D01*
X104562952Y-97781031D01*
X104555126Y-97766772D01*
X104546829Y-97752957D01*
X104538062Y-97739585D01*
X104528823Y-97726656D01*
X104519114Y-97714171D01*
X104508934Y-97702129D01*
X104498284Y-97690531D01*
X104487163Y-97679375D01*
X104475570Y-97668664D01*
X104463508Y-97658395D01*
X104455204Y-97651796D01*
X104442411Y-97642275D01*
X104429257Y-97633214D01*
X104415742Y-97624612D01*
X104401865Y-97616471D01*
X104387628Y-97608789D01*
X104373028Y-97601567D01*
X104358068Y-97594805D01*
X104342746Y-97588502D01*
X104327063Y-97582660D01*
X104311019Y-97577277D01*
X104300122Y-97573944D01*
X104283554Y-97569269D01*
X104266899Y-97565054D01*
X104250155Y-97561299D01*
X104233325Y-97558004D01*
X104216406Y-97555168D01*
X104199401Y-97552792D01*
X104182307Y-97550876D01*
X104165126Y-97549420D01*
X104147857Y-97548424D01*
X104130501Y-97547888D01*
X104118882Y-97547785D01*
X104105442Y-97547905D01*
X104092062Y-97548262D01*
X104078739Y-97548858D01*
X104065475Y-97549693D01*
X104052269Y-97550766D01*
X104039122Y-97552077D01*
X104026033Y-97553627D01*
X104013002Y-97555415D01*
X104000030Y-97557442D01*
X103987117Y-97559707D01*
X103974261Y-97562210D01*
X103961464Y-97564952D01*
X103948726Y-97567932D01*
X103936045Y-97571151D01*
X103923424Y-97574608D01*
X103910860Y-97578304D01*
X103898365Y-97582281D01*
X103886025Y-97586585D01*
X103873841Y-97591215D01*
X103861813Y-97596171D01*
X103849941Y-97601453D01*
X103838224Y-97607060D01*
X103826663Y-97612994D01*
X103815257Y-97619254D01*
X103804008Y-97625840D01*
X103792914Y-97632752D01*
X103781975Y-97639989D01*
X103771193Y-97647553D01*
X103760566Y-97655443D01*
X103750095Y-97663659D01*
X103739779Y-97672201D01*
X103729620Y-97681069D01*
X103921448Y-97890959D01*
G37*
G36*
X102369382Y-97890959D02*
G01*
X102378321Y-97880566D01*
X102388009Y-97870873D01*
X102398446Y-97861881D01*
X102409632Y-97853590D01*
X102421568Y-97845999D01*
X102434253Y-97839109D01*
X102447687Y-97832920D01*
X102461871Y-97827431D01*
X102476332Y-97822614D01*
X102490599Y-97818439D01*
X102504670Y-97814907D01*
X102518548Y-97812017D01*
X102532230Y-97809769D01*
X102545718Y-97808163D01*
X102559011Y-97807199D01*
X102572110Y-97806878D01*
X102585551Y-97807221D01*
X102599171Y-97808249D01*
X102612970Y-97809963D01*
X102626947Y-97812362D01*
X102635015Y-97814041D01*
X102648899Y-97817562D01*
X102662485Y-97821858D01*
X102675772Y-97826928D01*
X102688762Y-97832774D01*
X102696051Y-97836462D01*
X102708079Y-97843615D01*
X102719093Y-97851721D01*
X102729094Y-97860781D01*
X102738082Y-97870795D01*
X102742763Y-97876945D01*
X102749679Y-97888366D01*
X102754897Y-97900830D01*
X102758415Y-97914337D01*
X102760080Y-97926745D01*
X102760513Y-97937670D01*
X102759841Y-97951650D01*
X102757827Y-97964782D01*
X102754470Y-97977068D01*
X102748384Y-97991235D01*
X102740201Y-98004080D01*
X102729919Y-98015601D01*
X102720182Y-98023865D01*
X102717538Y-98025799D01*
X102706371Y-98033288D01*
X102694514Y-98040494D01*
X102681965Y-98047418D01*
X102668725Y-98054060D01*
X102654794Y-98060419D01*
X102640173Y-98066497D01*
X102624860Y-98072292D01*
X102612922Y-98076453D01*
X102608856Y-98077805D01*
X102596507Y-98081833D01*
X102583983Y-98085862D01*
X102571283Y-98089891D01*
X102558408Y-98093920D01*
X102545358Y-98097949D01*
X102532133Y-98101978D01*
X102518733Y-98106007D01*
X102505157Y-98110036D01*
X102491406Y-98114064D01*
X102477480Y-98118093D01*
X102468099Y-98120779D01*
X102454057Y-98124967D01*
X102440189Y-98129472D01*
X102426497Y-98134294D01*
X102412980Y-98139435D01*
X102399638Y-98144892D01*
X102386471Y-98150667D01*
X102373479Y-98156760D01*
X102360663Y-98163170D01*
X102348022Y-98169897D01*
X102335556Y-98176942D01*
X102327342Y-98181815D01*
X102315277Y-98189466D01*
X102303607Y-98197588D01*
X102292330Y-98206180D01*
X102281448Y-98215243D01*
X102270960Y-98224777D01*
X102260866Y-98234782D01*
X102251166Y-98245257D01*
X102241860Y-98256203D01*
X102232949Y-98267620D01*
X102224431Y-98279508D01*
X102218972Y-98287695D01*
X102211236Y-98300526D01*
X102204261Y-98314145D01*
X102198047Y-98328553D01*
X102192594Y-98343748D01*
X102187902Y-98359733D01*
X102183971Y-98376505D01*
X102180800Y-98394065D01*
X102178391Y-98412414D01*
X102177207Y-98425085D01*
X102176362Y-98438106D01*
X102175855Y-98451477D01*
X102175686Y-98465198D01*
X102175840Y-98478329D01*
X102176304Y-98491250D01*
X102177076Y-98503961D01*
X102178157Y-98516464D01*
X102180359Y-98534826D01*
X102183256Y-98552716D01*
X102186847Y-98570137D01*
X102191134Y-98587086D01*
X102196117Y-98603564D01*
X102201794Y-98619572D01*
X102208167Y-98635109D01*
X102215235Y-98650176D01*
X102222894Y-98664713D01*
X102231040Y-98678779D01*
X102239673Y-98692375D01*
X102248794Y-98705499D01*
X102258402Y-98718153D01*
X102268497Y-98730337D01*
X102279079Y-98742049D01*
X102290148Y-98753291D01*
X102301705Y-98764062D01*
X102313748Y-98774362D01*
X102322048Y-98780968D01*
X102334849Y-98790480D01*
X102348028Y-98799517D01*
X102361584Y-98808078D01*
X102375518Y-98816162D01*
X102389830Y-98823770D01*
X102404519Y-98830901D01*
X102419587Y-98837557D01*
X102435031Y-98843736D01*
X102450854Y-98849439D01*
X102467054Y-98854666D01*
X102478064Y-98857886D01*
X102494793Y-98862394D01*
X102511697Y-98866458D01*
X102528775Y-98870079D01*
X102546030Y-98873257D01*
X102563459Y-98875991D01*
X102581063Y-98878282D01*
X102598843Y-98880129D01*
X102616797Y-98881533D01*
X102634927Y-98882494D01*
X102653232Y-98883011D01*
X102665533Y-98883110D01*
X102680917Y-98882962D01*
X102696163Y-98882516D01*
X102711270Y-98881774D01*
X102726238Y-98880735D01*
X102741068Y-98879400D01*
X102755759Y-98877767D01*
X102770311Y-98875838D01*
X102784725Y-98873612D01*
X102799000Y-98871089D01*
X102813136Y-98868269D01*
X102827134Y-98865153D01*
X102840993Y-98861739D01*
X102854713Y-98858029D01*
X102868295Y-98854022D01*
X102881738Y-98849719D01*
X102895042Y-98845118D01*
X102908221Y-98840225D01*
X102921288Y-98834968D01*
X102934243Y-98829346D01*
X102947086Y-98823358D01*
X102959818Y-98817006D01*
X102972437Y-98810289D01*
X102984944Y-98803207D01*
X102997340Y-98795760D01*
X103009624Y-98787948D01*
X103021795Y-98779771D01*
X103033855Y-98771229D01*
X103045803Y-98762322D01*
X103057639Y-98753050D01*
X103069363Y-98743414D01*
X103080975Y-98733412D01*
X103092476Y-98723045D01*
X102893173Y-98503813D01*
X102884919Y-98514385D01*
X102876270Y-98524497D01*
X102867227Y-98534150D01*
X102857790Y-98543343D01*
X102847958Y-98552075D01*
X102837733Y-98560348D01*
X102827113Y-98568162D01*
X102816100Y-98575515D01*
X102804692Y-98582409D01*
X102792890Y-98588842D01*
X102784803Y-98592876D01*
X102772447Y-98598441D01*
X102760020Y-98603459D01*
X102747522Y-98607930D01*
X102734953Y-98611853D01*
X102722313Y-98615228D01*
X102709601Y-98618057D01*
X102696818Y-98620337D01*
X102683965Y-98622071D01*
X102671040Y-98623257D01*
X102658043Y-98623895D01*
X102649340Y-98624017D01*
X102636472Y-98623732D01*
X102623561Y-98622879D01*
X102610606Y-98621455D01*
X102597607Y-98619463D01*
X102584564Y-98616901D01*
X102580207Y-98615920D01*
X102567379Y-98612600D01*
X102555056Y-98608709D01*
X102543235Y-98604250D01*
X102530082Y-98598328D01*
X102517613Y-98591631D01*
X102505888Y-98584129D01*
X102495236Y-98575792D01*
X102485656Y-98566622D01*
X102477150Y-98556616D01*
X102472770Y-98550524D01*
X102466097Y-98539072D01*
X102461062Y-98526784D01*
X102457667Y-98513663D01*
X102455911Y-98499706D01*
X102455643Y-98491357D01*
X102456329Y-98477338D01*
X102458387Y-98464089D01*
X102461818Y-98451608D01*
X102466620Y-98439896D01*
X102472795Y-98428953D01*
X102480342Y-98418779D01*
X102489261Y-98409373D01*
X102499552Y-98400736D01*
X102510879Y-98392567D01*
X102522907Y-98384718D01*
X102535636Y-98377191D01*
X102549066Y-98369985D01*
X102563196Y-98363100D01*
X102578027Y-98356536D01*
X102589610Y-98351824D01*
X102601587Y-98347292D01*
X102609791Y-98344371D01*
X102622323Y-98339992D01*
X102635048Y-98335613D01*
X102647964Y-98331234D01*
X102661071Y-98326854D01*
X102674370Y-98322475D01*
X102687861Y-98318096D01*
X102701543Y-98313717D01*
X102715417Y-98309338D01*
X102729482Y-98304958D01*
X102743739Y-98300579D01*
X102753350Y-98297660D01*
X102767735Y-98293138D01*
X102781928Y-98288332D01*
X102795930Y-98283241D01*
X102809740Y-98277866D01*
X102823358Y-98272206D01*
X102836785Y-98266261D01*
X102850020Y-98260032D01*
X102863064Y-98253518D01*
X102875916Y-98246719D01*
X102888576Y-98239635D01*
X102896910Y-98234755D01*
X102909150Y-98227121D01*
X102920996Y-98219048D01*
X102932448Y-98210538D01*
X102943505Y-98201590D01*
X102954168Y-98192204D01*
X102964438Y-98182380D01*
X102974313Y-98172118D01*
X102983794Y-98161418D01*
X102992880Y-98150280D01*
X103001573Y-98138705D01*
X103007149Y-98130744D01*
X103014996Y-98118294D01*
X103022071Y-98105115D01*
X103028375Y-98091208D01*
X103033906Y-98076574D01*
X103038666Y-98061211D01*
X103042654Y-98045120D01*
X103045870Y-98028301D01*
X103048314Y-98010754D01*
X103049986Y-97992479D01*
X103050672Y-97979892D01*
X103051015Y-97966980D01*
X103051058Y-97960403D01*
X103050901Y-97947696D01*
X103050430Y-97935189D01*
X103049136Y-97916802D01*
X103047135Y-97898863D01*
X103044428Y-97881374D01*
X103041015Y-97864333D01*
X103036896Y-97847742D01*
X103032071Y-97831599D01*
X103026539Y-97815905D01*
X103020302Y-97800660D01*
X103013358Y-97785864D01*
X103010886Y-97781031D01*
X103003060Y-97766772D01*
X102994764Y-97752957D01*
X102985996Y-97739585D01*
X102976758Y-97726656D01*
X102967049Y-97714171D01*
X102956869Y-97702129D01*
X102946218Y-97690531D01*
X102935097Y-97679375D01*
X102923505Y-97668664D01*
X102911442Y-97658395D01*
X102903139Y-97651796D01*
X102890346Y-97642275D01*
X102877192Y-97633214D01*
X102863676Y-97624612D01*
X102849800Y-97616471D01*
X102835562Y-97608789D01*
X102820963Y-97601567D01*
X102806002Y-97594805D01*
X102790681Y-97588502D01*
X102774998Y-97582660D01*
X102758953Y-97577277D01*
X102748057Y-97573944D01*
X102731489Y-97569269D01*
X102714833Y-97565054D01*
X102698090Y-97561299D01*
X102681259Y-97558004D01*
X102664341Y-97555168D01*
X102647335Y-97552792D01*
X102630242Y-97550876D01*
X102613060Y-97549420D01*
X102595792Y-97548424D01*
X102578436Y-97547888D01*
X102566816Y-97547785D01*
X102553377Y-97547905D01*
X102539996Y-97548262D01*
X102526673Y-97548858D01*
X102513409Y-97549693D01*
X102500204Y-97550766D01*
X102487056Y-97552077D01*
X102473967Y-97553627D01*
X102460937Y-97555415D01*
X102447965Y-97557442D01*
X102435051Y-97559707D01*
X102422196Y-97562210D01*
X102409399Y-97564952D01*
X102396660Y-97567932D01*
X102383980Y-97571151D01*
X102371358Y-97574608D01*
X102358794Y-97578304D01*
X102346299Y-97582281D01*
X102333960Y-97586585D01*
X102321776Y-97591215D01*
X102309747Y-97596171D01*
X102297875Y-97601453D01*
X102286158Y-97607060D01*
X102274597Y-97612994D01*
X102263192Y-97619254D01*
X102251942Y-97625840D01*
X102240848Y-97632752D01*
X102229910Y-97639989D01*
X102219127Y-97647553D01*
X102208500Y-97655443D01*
X102198029Y-97663659D01*
X102187714Y-97672201D01*
X102177554Y-97681069D01*
X102369382Y-97890959D01*
G37*
G36*
X101977006Y-97567716D02*
G01*
X101697049Y-97567716D01*
X101697049Y-98843250D01*
X101977006Y-98843250D01*
X101977006Y-97567716D01*
G37*
G36*
X101445119Y-98843250D02*
G01*
X100987658Y-98843250D01*
X100969996Y-98843088D01*
X100952435Y-98842602D01*
X100934972Y-98841793D01*
X100917610Y-98840661D01*
X100900348Y-98839205D01*
X100883185Y-98837425D01*
X100866122Y-98835322D01*
X100849158Y-98832895D01*
X100832295Y-98830145D01*
X100815531Y-98827071D01*
X100798867Y-98823673D01*
X100782303Y-98819952D01*
X100765838Y-98815907D01*
X100749473Y-98811539D01*
X100733208Y-98806847D01*
X100717043Y-98801832D01*
X100701008Y-98796504D01*
X100685211Y-98790874D01*
X100669653Y-98784943D01*
X100654333Y-98778710D01*
X100639251Y-98772175D01*
X100624408Y-98765339D01*
X100609804Y-98758201D01*
X100595437Y-98750761D01*
X100581310Y-98743019D01*
X100567420Y-98734976D01*
X100553769Y-98726631D01*
X100540357Y-98717985D01*
X100527183Y-98709037D01*
X100514247Y-98699787D01*
X100501550Y-98690235D01*
X100489091Y-98680382D01*
X100476910Y-98670192D01*
X100465044Y-98659708D01*
X100453495Y-98648929D01*
X100442263Y-98637855D01*
X100431346Y-98626488D01*
X100420746Y-98614826D01*
X100410463Y-98602869D01*
X100400495Y-98590618D01*
X100390844Y-98578073D01*
X100381509Y-98565234D01*
X100372490Y-98552100D01*
X100363788Y-98538671D01*
X100355401Y-98524949D01*
X100347332Y-98510932D01*
X100339578Y-98496620D01*
X100332141Y-98482014D01*
X100325089Y-98467118D01*
X100318492Y-98451934D01*
X100312350Y-98436463D01*
X100306663Y-98420706D01*
X100301431Y-98404661D01*
X100296655Y-98388329D01*
X100292332Y-98371710D01*
X100288465Y-98354803D01*
X100285053Y-98337610D01*
X100282096Y-98320130D01*
X100279594Y-98302363D01*
X100277547Y-98284308D01*
X100275954Y-98265967D01*
X100274817Y-98247338D01*
X100274134Y-98228422D01*
X100273907Y-98209219D01*
X100274066Y-98194583D01*
X100564452Y-98194583D01*
X100564590Y-98207998D01*
X100565002Y-98221150D01*
X100565689Y-98234040D01*
X100566652Y-98246667D01*
X100568610Y-98265114D01*
X100571188Y-98282970D01*
X100574384Y-98300235D01*
X100578198Y-98316909D01*
X100582631Y-98332991D01*
X100587683Y-98348483D01*
X100593353Y-98363383D01*
X100599641Y-98377692D01*
X100604103Y-98386922D01*
X100611179Y-98400348D01*
X100618715Y-98413271D01*
X100626711Y-98425689D01*
X100635167Y-98437604D01*
X100644082Y-98449016D01*
X100653457Y-98459924D01*
X100663292Y-98470328D01*
X100673587Y-98480229D01*
X100684341Y-98489626D01*
X100695556Y-98498519D01*
X100703235Y-98504178D01*
X100715087Y-98512283D01*
X100727339Y-98519928D01*
X100739990Y-98527114D01*
X100753041Y-98533840D01*
X100766492Y-98540106D01*
X100780342Y-98545912D01*
X100794592Y-98551258D01*
X100809241Y-98556144D01*
X100824290Y-98560571D01*
X100839738Y-98564538D01*
X100850223Y-98566914D01*
X100866146Y-98570190D01*
X100882304Y-98573121D01*
X100898698Y-98575708D01*
X100915327Y-98577949D01*
X100932191Y-98579846D01*
X100949291Y-98581398D01*
X100966626Y-98582605D01*
X100984197Y-98583467D01*
X101002003Y-98583984D01*
X101020044Y-98584157D01*
X101165473Y-98584157D01*
X101165473Y-97826808D01*
X101000426Y-97826808D01*
X100989480Y-97826897D01*
X100973180Y-97827363D01*
X100957023Y-97828229D01*
X100941008Y-97829495D01*
X100925135Y-97831160D01*
X100909405Y-97833224D01*
X100893817Y-97835689D01*
X100878371Y-97838552D01*
X100863067Y-97841816D01*
X100847906Y-97845479D01*
X100832887Y-97849541D01*
X100822965Y-97852433D01*
X100808387Y-97857103D01*
X100794175Y-97862173D01*
X100780331Y-97867642D01*
X100766853Y-97873511D01*
X100753742Y-97879780D01*
X100740997Y-97886448D01*
X100728620Y-97893516D01*
X100716609Y-97900984D01*
X100704965Y-97908851D01*
X100693687Y-97917117D01*
X100686386Y-97922819D01*
X100675790Y-97931731D01*
X100665621Y-97941076D01*
X100655880Y-97950854D01*
X100646565Y-97961064D01*
X100637677Y-97971706D01*
X100629216Y-97982781D01*
X100621182Y-97994288D01*
X100613575Y-98006228D01*
X100606395Y-98018600D01*
X100599641Y-98031405D01*
X100595380Y-98040180D01*
X100589504Y-98053699D01*
X100584246Y-98067645D01*
X100579607Y-98082018D01*
X100575586Y-98096818D01*
X100572184Y-98112044D01*
X100569401Y-98127698D01*
X100567236Y-98143779D01*
X100565689Y-98160287D01*
X100564761Y-98177222D01*
X100564452Y-98194583D01*
X100274066Y-98194583D01*
X100274142Y-98187549D01*
X100274846Y-98166289D01*
X100276020Y-98145440D01*
X100277663Y-98125003D01*
X100279776Y-98104976D01*
X100282359Y-98085361D01*
X100285411Y-98066157D01*
X100288933Y-98047364D01*
X100292924Y-98028983D01*
X100297384Y-98011012D01*
X100302315Y-97993453D01*
X100307714Y-97976305D01*
X100313584Y-97959568D01*
X100319923Y-97943242D01*
X100326731Y-97927327D01*
X100334009Y-97911823D01*
X100341686Y-97896704D01*
X100349691Y-97881943D01*
X100358025Y-97867539D01*
X100366688Y-97853492D01*
X100375678Y-97839804D01*
X100384998Y-97826473D01*
X100394645Y-97813499D01*
X100404621Y-97800884D01*
X100414926Y-97788626D01*
X100425559Y-97776725D01*
X100436520Y-97765182D01*
X100447810Y-97753997D01*
X100459428Y-97743169D01*
X100471375Y-97732700D01*
X100483650Y-97722587D01*
X100496253Y-97712833D01*
X100509159Y-97703422D01*
X100522339Y-97694343D01*
X100535794Y-97685594D01*
X100549524Y-97677176D01*
X100563529Y-97669089D01*
X100577809Y-97661333D01*
X100592364Y-97653908D01*
X100607193Y-97646814D01*
X100622298Y-97640050D01*
X100637677Y-97633618D01*
X100653332Y-97627516D01*
X100669261Y-97621745D01*
X100685465Y-97616305D01*
X100701944Y-97611196D01*
X100718699Y-97606418D01*
X100735728Y-97601971D01*
X100752952Y-97597823D01*
X100770294Y-97593942D01*
X100787752Y-97590329D01*
X100805328Y-97586984D01*
X100823020Y-97583907D01*
X100840828Y-97581097D01*
X100858754Y-97578554D01*
X100876796Y-97576279D01*
X100894955Y-97574272D01*
X100913231Y-97572533D01*
X100931624Y-97571061D01*
X100950133Y-97569857D01*
X100968759Y-97568920D01*
X100987502Y-97568251D01*
X101006362Y-97567849D01*
X101025338Y-97567716D01*
X101445119Y-97567716D01*
X101445119Y-98843250D01*
G37*
G36*
X100080522Y-97567716D02*
G01*
X99217606Y-97567716D01*
X99217606Y-97826808D01*
X99800564Y-97826808D01*
X99800564Y-98065971D01*
X99249992Y-98065971D01*
X99249992Y-98325064D01*
X99800564Y-98325064D01*
X99800564Y-98584157D01*
X99185219Y-98584157D01*
X99185219Y-98843250D01*
X100080522Y-98843250D01*
X100080522Y-97567716D01*
G37*
G36*
X97368767Y-98355893D02*
G01*
X97368900Y-98370071D01*
X97369302Y-98384110D01*
X97369971Y-98398010D01*
X97370908Y-98411772D01*
X97372112Y-98425395D01*
X97373584Y-98438879D01*
X97375323Y-98452225D01*
X97377330Y-98465432D01*
X97379605Y-98478500D01*
X97382147Y-98491430D01*
X97384957Y-98504221D01*
X97388035Y-98516873D01*
X97391380Y-98529386D01*
X97394993Y-98541761D01*
X97398874Y-98553997D01*
X97403022Y-98566095D01*
X97407395Y-98577986D01*
X97412028Y-98589679D01*
X97416922Y-98601176D01*
X97424751Y-98618051D01*
X97433165Y-98634483D01*
X97442165Y-98650472D01*
X97451751Y-98666017D01*
X97461923Y-98681119D01*
X97472680Y-98695778D01*
X97484023Y-98709993D01*
X97495952Y-98723764D01*
X97504230Y-98732699D01*
X97517135Y-98745682D01*
X97530625Y-98758124D01*
X97544702Y-98770024D01*
X97559364Y-98781381D01*
X97574612Y-98792197D01*
X97585102Y-98799106D01*
X97595853Y-98805775D01*
X97606864Y-98812203D01*
X97618136Y-98818389D01*
X97629668Y-98824335D01*
X97641460Y-98830040D01*
X97653513Y-98835505D01*
X97665826Y-98840728D01*
X97672080Y-98843250D01*
X97684733Y-98848076D01*
X97697625Y-98852592D01*
X97710755Y-98856796D01*
X97724124Y-98860688D01*
X97737731Y-98864270D01*
X97751577Y-98867539D01*
X97765661Y-98870498D01*
X97779983Y-98873145D01*
X97794544Y-98875480D01*
X97809343Y-98877505D01*
X97824381Y-98879217D01*
X97839657Y-98880619D01*
X97855171Y-98881709D01*
X97870924Y-98882487D01*
X97886916Y-98882954D01*
X97903146Y-98883110D01*
X97919603Y-98882954D01*
X97935809Y-98882487D01*
X97951766Y-98881709D01*
X97967471Y-98880619D01*
X97982926Y-98879217D01*
X97998130Y-98877505D01*
X98013084Y-98875480D01*
X98027787Y-98873145D01*
X98042240Y-98870498D01*
X98056442Y-98867539D01*
X98070393Y-98864270D01*
X98084094Y-98860688D01*
X98097544Y-98856796D01*
X98110744Y-98852592D01*
X98123693Y-98848076D01*
X98136391Y-98843250D01*
X98148797Y-98838147D01*
X98160944Y-98832803D01*
X98172834Y-98827218D01*
X98184465Y-98821392D01*
X98195839Y-98815326D01*
X98206955Y-98809019D01*
X98217813Y-98802471D01*
X98228413Y-98795682D01*
X98238755Y-98788652D01*
X98253785Y-98777656D01*
X98268234Y-98766117D01*
X98282104Y-98754037D01*
X98295393Y-98741415D01*
X98303930Y-98732699D01*
X98316252Y-98719223D01*
X98327993Y-98705304D01*
X98339155Y-98690941D01*
X98349736Y-98676134D01*
X98359737Y-98660885D01*
X98369158Y-98645192D01*
X98377998Y-98629055D01*
X98386259Y-98612476D01*
X98393939Y-98595452D01*
X98398736Y-98583857D01*
X98403276Y-98572065D01*
X98405449Y-98566095D01*
X98409560Y-98553997D01*
X98413405Y-98541761D01*
X98416985Y-98529386D01*
X98420300Y-98516873D01*
X98423349Y-98504221D01*
X98426134Y-98491430D01*
X98428653Y-98478500D01*
X98430907Y-98465432D01*
X98432896Y-98452225D01*
X98434620Y-98438879D01*
X98436078Y-98425395D01*
X98437271Y-98411772D01*
X98438200Y-98398010D01*
X98438863Y-98384110D01*
X98439260Y-98370071D01*
X98439393Y-98355893D01*
X98439393Y-97567716D01*
X98159747Y-97567716D01*
X98159747Y-98346240D01*
X98159455Y-98361119D01*
X98158579Y-98375707D01*
X98157120Y-98390003D01*
X98155076Y-98404006D01*
X98152448Y-98417718D01*
X98149237Y-98431138D01*
X98145442Y-98444266D01*
X98141062Y-98457102D01*
X98136080Y-98469582D01*
X98130630Y-98481645D01*
X98124713Y-98493288D01*
X98118330Y-98504514D01*
X98111479Y-98515321D01*
X98104160Y-98525709D01*
X98096375Y-98535679D01*
X98088123Y-98545230D01*
X98079355Y-98554242D01*
X98070178Y-98562747D01*
X98060592Y-98570747D01*
X98050598Y-98578240D01*
X98040195Y-98585227D01*
X98029383Y-98591708D01*
X98018163Y-98597684D01*
X98006534Y-98603153D01*
X97994496Y-98608043D01*
X97982205Y-98612281D01*
X97969661Y-98615867D01*
X97956864Y-98618801D01*
X97943814Y-98621083D01*
X97930511Y-98622713D01*
X97916955Y-98623691D01*
X97903146Y-98624017D01*
X97889424Y-98623691D01*
X97875975Y-98622713D01*
X97862798Y-98621083D01*
X97849894Y-98618801D01*
X97837263Y-98615867D01*
X97824904Y-98612281D01*
X97812817Y-98608043D01*
X97801003Y-98603153D01*
X97789525Y-98597684D01*
X97778445Y-98591708D01*
X97767765Y-98585227D01*
X97754976Y-98576414D01*
X97742810Y-98566810D01*
X97731267Y-98556416D01*
X97722482Y-98547531D01*
X97720348Y-98545230D01*
X97712028Y-98535679D01*
X97704194Y-98525709D01*
X97696846Y-98515321D01*
X97689986Y-98504514D01*
X97683611Y-98493288D01*
X97677724Y-98481645D01*
X97672323Y-98469582D01*
X97667408Y-98457102D01*
X97662956Y-98444266D01*
X97659098Y-98431138D01*
X97655833Y-98417718D01*
X97653161Y-98404006D01*
X97651084Y-98390003D01*
X97649600Y-98375707D01*
X97648709Y-98361119D01*
X97648412Y-98346240D01*
X97648412Y-97567716D01*
X97368767Y-97567716D01*
X97368767Y-98355893D01*
G37*
G36*
X97117770Y-98843250D02*
G01*
X96838125Y-98843250D01*
X96838125Y-98344994D01*
X96633528Y-98344994D01*
X96621050Y-98344921D01*
X96602543Y-98344538D01*
X96584287Y-98343826D01*
X96566283Y-98342786D01*
X96548531Y-98341418D01*
X96531030Y-98339721D01*
X96513782Y-98337695D01*
X96496785Y-98335342D01*
X96480040Y-98332659D01*
X96463547Y-98329649D01*
X96447305Y-98326310D01*
X96436614Y-98323834D01*
X96420919Y-98319742D01*
X96405635Y-98315196D01*
X96390761Y-98310196D01*
X96376298Y-98304741D01*
X96362245Y-98298832D01*
X96348603Y-98292468D01*
X96335372Y-98285650D01*
X96322551Y-98278378D01*
X96310140Y-98270651D01*
X96298140Y-98262471D01*
X96290383Y-98256707D01*
X96279144Y-98247615D01*
X96268381Y-98237986D01*
X96258095Y-98227821D01*
X96248284Y-98217119D01*
X96238950Y-98205881D01*
X96230092Y-98194106D01*
X96221711Y-98181795D01*
X96213805Y-98168948D01*
X96206376Y-98155564D01*
X96199423Y-98141644D01*
X96195087Y-98132045D01*
X96189106Y-98117122D01*
X96183756Y-98101569D01*
X96179034Y-98085387D01*
X96174942Y-98068575D01*
X96171480Y-98051134D01*
X96168647Y-98033064D01*
X96167109Y-98020667D01*
X96165850Y-98007990D01*
X96164870Y-97995034D01*
X96164171Y-97981798D01*
X96163751Y-97968282D01*
X96163611Y-97954486D01*
X96454156Y-97954486D01*
X96454307Y-97962705D01*
X96455227Y-97975818D01*
X96457435Y-97990590D01*
X96460847Y-98004312D01*
X96465463Y-98016982D01*
X96471284Y-98028602D01*
X96475663Y-98035725D01*
X96484170Y-98047255D01*
X96493749Y-98057592D01*
X96504402Y-98066737D01*
X96516127Y-98074691D01*
X96528610Y-98081586D01*
X96541809Y-98087557D01*
X96553691Y-98091940D01*
X96566099Y-98095644D01*
X96579032Y-98098669D01*
X96583402Y-98099536D01*
X96596646Y-98101803D01*
X96610086Y-98103565D01*
X96623724Y-98104824D01*
X96637559Y-98105580D01*
X96651590Y-98105831D01*
X96838125Y-98105831D01*
X96838125Y-97806878D01*
X96694565Y-97806878D01*
X96689608Y-97806896D01*
X96677098Y-97807102D01*
X96664421Y-97807535D01*
X96651577Y-97808197D01*
X96638566Y-97809086D01*
X96625387Y-97810204D01*
X96612041Y-97811549D01*
X96598809Y-97813193D01*
X96585973Y-97815399D01*
X96573532Y-97818168D01*
X96561486Y-97821500D01*
X96547553Y-97826240D01*
X96534189Y-97831791D01*
X96529840Y-97833830D01*
X96517392Y-97840588D01*
X96505842Y-97848310D01*
X96495190Y-97856996D01*
X96485435Y-97866645D01*
X96476578Y-97877257D01*
X96470119Y-97886861D01*
X96463813Y-97899590D01*
X96459083Y-97913632D01*
X96456346Y-97926338D01*
X96454704Y-97939956D01*
X96454156Y-97954486D01*
X96163611Y-97954486D01*
X96163649Y-97947440D01*
X96163951Y-97933575D01*
X96164554Y-97920014D01*
X96165459Y-97906757D01*
X96166666Y-97893804D01*
X96168174Y-97881156D01*
X96171002Y-97862753D01*
X96174509Y-97845035D01*
X96178695Y-97828001D01*
X96183560Y-97811651D01*
X96189103Y-97795985D01*
X96195325Y-97781004D01*
X96202226Y-97766706D01*
X96207158Y-97757485D01*
X96214947Y-97744103D01*
X96223207Y-97731264D01*
X96231938Y-97718967D01*
X96241140Y-97707211D01*
X96250813Y-97695998D01*
X96260956Y-97685326D01*
X96271570Y-97675197D01*
X96282655Y-97665609D01*
X96294211Y-97656563D01*
X96306237Y-97648059D01*
X96314500Y-97642634D01*
X96327228Y-97634879D01*
X96340356Y-97627584D01*
X96353883Y-97620749D01*
X96367810Y-97614374D01*
X96382136Y-97608458D01*
X96396862Y-97603002D01*
X96411988Y-97598006D01*
X96427513Y-97593470D01*
X96443438Y-97589394D01*
X96459762Y-97585777D01*
X96470780Y-97583590D01*
X96487463Y-97580574D01*
X96504332Y-97577875D01*
X96521388Y-97575494D01*
X96538629Y-97573431D01*
X96556056Y-97571684D01*
X96573670Y-97570256D01*
X96591469Y-97569144D01*
X96609455Y-97568351D01*
X96627627Y-97567874D01*
X96645985Y-97567716D01*
X97117770Y-97567716D01*
X97117770Y-98843250D01*
G37*
G36*
X108591859Y-104061716D02*
G01*
X107739842Y-104061716D01*
X107739842Y-104320808D01*
X108311901Y-104320808D01*
X108311901Y-104579901D01*
X107782816Y-104579901D01*
X107782816Y-104838994D01*
X108311901Y-104838994D01*
X108311901Y-105337250D01*
X108591859Y-105337250D01*
X108591859Y-104061716D01*
G37*
G36*
X107611230Y-105075354D02*
G01*
X106967546Y-104300878D01*
X107588185Y-104300878D01*
X107588185Y-104061716D01*
X106628421Y-104061716D01*
X106628421Y-104310532D01*
X107259648Y-105078157D01*
X106606934Y-105078157D01*
X106606934Y-105337250D01*
X107611230Y-105337250D01*
X107611230Y-105075354D01*
G37*
G36*
X105882595Y-104061716D02*
G01*
X105602638Y-104061716D01*
X105602638Y-105078157D01*
X105084452Y-105078157D01*
X105084452Y-105337250D01*
X105882595Y-105337250D01*
X105882595Y-104061716D01*
G37*
G36*
X104939024Y-104061716D02*
G01*
X104659066Y-104061716D01*
X104659066Y-105337250D01*
X104939024Y-105337250D01*
X104939024Y-104061716D01*
G37*
G36*
X104407136Y-104061716D02*
G01*
X104026905Y-104061716D01*
X103487232Y-104947987D01*
X103483495Y-104947987D01*
X103483495Y-104061716D01*
X103203538Y-104061716D01*
X103203538Y-105337250D01*
X103569444Y-105337250D01*
X104123753Y-104429179D01*
X104127490Y-104429179D01*
X104127490Y-105337250D01*
X104407136Y-105337250D01*
X104407136Y-104061716D01*
G37*
G36*
X102941642Y-104061716D02*
G01*
X102661685Y-104061716D01*
X102661685Y-104591423D01*
X102168412Y-104061716D01*
X101802506Y-104061716D01*
X102367714Y-104654328D01*
X101754237Y-105337250D01*
X102145056Y-105337250D01*
X102661685Y-104731869D01*
X102661685Y-105337250D01*
X102941642Y-105337250D01*
X102941642Y-104061716D01*
G37*
G36*
X100305560Y-104404889D02*
G01*
X100316206Y-104392647D01*
X100327436Y-104381144D01*
X100339250Y-104370381D01*
X100351648Y-104360357D01*
X100364630Y-104351074D01*
X100378196Y-104342529D01*
X100392346Y-104334725D01*
X100407079Y-104327659D01*
X100422397Y-104321383D01*
X100434268Y-104317224D01*
X100446468Y-104313537D01*
X100458996Y-104310320D01*
X100471852Y-104307574D01*
X100485038Y-104305298D01*
X100498551Y-104303494D01*
X100512393Y-104302160D01*
X100526563Y-104301297D01*
X100541062Y-104300904D01*
X100545968Y-104300878D01*
X100560695Y-104301146D01*
X100575214Y-104301951D01*
X100589525Y-104303292D01*
X100603627Y-104305170D01*
X100617522Y-104307584D01*
X100631209Y-104310534D01*
X100644688Y-104314021D01*
X100657959Y-104318045D01*
X100671021Y-104322605D01*
X100683876Y-104327701D01*
X100692330Y-104331396D01*
X100704784Y-104337332D01*
X100716920Y-104343695D01*
X100728738Y-104350484D01*
X100740239Y-104357701D01*
X100751422Y-104365344D01*
X100762288Y-104373415D01*
X100772837Y-104381912D01*
X100783067Y-104390837D01*
X100792981Y-104400188D01*
X100802577Y-104409967D01*
X100808798Y-104416723D01*
X100817837Y-104427124D01*
X100826504Y-104437892D01*
X100834799Y-104449027D01*
X100842722Y-104460529D01*
X100850272Y-104472398D01*
X100857451Y-104484633D01*
X100864257Y-104497235D01*
X100870690Y-104510204D01*
X100876752Y-104523539D01*
X100882441Y-104537242D01*
X100886027Y-104546580D01*
X100890980Y-104560764D01*
X100895446Y-104575173D01*
X100899425Y-104589806D01*
X100902916Y-104604663D01*
X100905921Y-104619745D01*
X100908438Y-104635051D01*
X100910468Y-104650582D01*
X100912011Y-104666337D01*
X100913066Y-104682316D01*
X100913634Y-104698520D01*
X100913743Y-104709448D01*
X100913499Y-104726130D01*
X100912768Y-104742543D01*
X100911550Y-104758689D01*
X100909845Y-104774566D01*
X100907653Y-104790175D01*
X100904973Y-104805516D01*
X100901807Y-104820589D01*
X100898153Y-104835393D01*
X100894012Y-104849930D01*
X100889383Y-104864198D01*
X100886027Y-104873561D01*
X100880594Y-104887288D01*
X100874806Y-104900675D01*
X100868661Y-104913723D01*
X100862161Y-104926432D01*
X100855304Y-104938801D01*
X100848092Y-104950832D01*
X100840525Y-104962522D01*
X100832601Y-104973873D01*
X100824322Y-104984885D01*
X100815686Y-104995558D01*
X100809732Y-105002484D01*
X100800475Y-105012492D01*
X100790923Y-105022077D01*
X100781076Y-105031242D01*
X100770932Y-105039985D01*
X100760493Y-105048306D01*
X100749759Y-105056206D01*
X100738729Y-105063684D01*
X100727403Y-105070741D01*
X100715782Y-105077377D01*
X100703865Y-105083591D01*
X100695756Y-105087499D01*
X100683407Y-105092953D01*
X100670882Y-105097870D01*
X100658182Y-105102251D01*
X100645308Y-105106096D01*
X100632258Y-105109404D01*
X100619032Y-105112176D01*
X100605632Y-105114411D01*
X100592057Y-105116110D01*
X100578306Y-105117272D01*
X100564380Y-105117898D01*
X100554999Y-105118017D01*
X100539056Y-105117702D01*
X100523458Y-105116758D01*
X100508204Y-105115184D01*
X100493296Y-105112981D01*
X100478732Y-105110148D01*
X100464514Y-105106686D01*
X100450640Y-105102594D01*
X100437111Y-105097873D01*
X100423927Y-105092522D01*
X100411087Y-105086542D01*
X100402720Y-105082205D01*
X100390432Y-105075236D01*
X100378561Y-105067757D01*
X100367106Y-105059770D01*
X100356066Y-105051273D01*
X100345443Y-105042268D01*
X100335236Y-105032753D01*
X100325445Y-105022729D01*
X100316070Y-105012196D01*
X100307111Y-105001154D01*
X100298568Y-104989603D01*
X100293103Y-104981620D01*
X100059858Y-105155698D01*
X100070109Y-105169636D01*
X100080698Y-105183111D01*
X100091625Y-105196125D01*
X100102890Y-105208676D01*
X100114494Y-105220765D01*
X100126436Y-105232392D01*
X100138716Y-105243557D01*
X100151334Y-105254259D01*
X100164290Y-105264499D01*
X100177585Y-105274277D01*
X100191218Y-105283592D01*
X100205189Y-105292445D01*
X100219498Y-105300836D01*
X100234145Y-105308765D01*
X100249130Y-105316232D01*
X100264454Y-105323236D01*
X100279937Y-105329760D01*
X100295478Y-105335863D01*
X100311078Y-105341545D01*
X100326736Y-105346806D01*
X100342452Y-105351646D01*
X100358227Y-105356065D01*
X100374060Y-105360064D01*
X100389952Y-105363641D01*
X100405902Y-105366798D01*
X100421910Y-105369534D01*
X100437977Y-105371849D01*
X100454102Y-105373743D01*
X100470286Y-105375216D01*
X100486528Y-105376268D01*
X100502828Y-105376899D01*
X100519187Y-105377110D01*
X100537702Y-105376927D01*
X100556035Y-105376380D01*
X100574186Y-105375468D01*
X100592154Y-105374190D01*
X100609940Y-105372548D01*
X100627543Y-105370541D01*
X100644963Y-105368169D01*
X100662202Y-105365432D01*
X100679257Y-105362330D01*
X100696131Y-105358863D01*
X100712821Y-105355031D01*
X100729330Y-105350835D01*
X100745656Y-105346273D01*
X100761799Y-105341346D01*
X100777760Y-105336055D01*
X100793539Y-105330398D01*
X100809093Y-105324403D01*
X100824383Y-105318093D01*
X100839407Y-105311469D01*
X100854166Y-105304532D01*
X100868660Y-105297281D01*
X100882889Y-105289716D01*
X100896852Y-105281837D01*
X100910551Y-105273644D01*
X100923984Y-105265137D01*
X100937152Y-105256317D01*
X100950055Y-105247183D01*
X100962692Y-105237735D01*
X100975065Y-105227973D01*
X100987172Y-105217897D01*
X100999014Y-105207507D01*
X101010591Y-105196804D01*
X101021877Y-105185762D01*
X101032847Y-105174436D01*
X101043501Y-105162825D01*
X101053838Y-105150929D01*
X101063859Y-105138749D01*
X101073564Y-105126284D01*
X101082953Y-105113535D01*
X101092025Y-105100500D01*
X101100781Y-105087181D01*
X101109220Y-105073578D01*
X101117344Y-105059690D01*
X101125151Y-105045517D01*
X101132642Y-105031060D01*
X101139816Y-105016318D01*
X101146675Y-105001291D01*
X101153217Y-104985979D01*
X101159401Y-104970375D01*
X101165187Y-104954547D01*
X101170573Y-104938494D01*
X101175560Y-104922218D01*
X101180149Y-104905718D01*
X101184338Y-104888995D01*
X101188129Y-104872047D01*
X101191520Y-104854876D01*
X101194513Y-104837481D01*
X101197106Y-104819862D01*
X101199301Y-104802019D01*
X101201096Y-104783952D01*
X101202492Y-104765662D01*
X101203490Y-104747148D01*
X101204088Y-104728410D01*
X101204288Y-104709448D01*
X101204088Y-104690487D01*
X101203490Y-104671753D01*
X101202492Y-104653244D01*
X101201096Y-104634962D01*
X101199301Y-104616907D01*
X101197106Y-104599077D01*
X101194513Y-104581474D01*
X101191520Y-104564097D01*
X101188129Y-104546947D01*
X101184338Y-104530022D01*
X101180149Y-104513324D01*
X101175560Y-104496852D01*
X101170573Y-104480607D01*
X101165187Y-104464587D01*
X101159401Y-104448794D01*
X101153217Y-104433227D01*
X101146675Y-104417879D01*
X101139816Y-104402821D01*
X101132642Y-104388052D01*
X101125151Y-104373573D01*
X101117344Y-104359383D01*
X101109220Y-104345483D01*
X101100781Y-104331872D01*
X101092025Y-104318551D01*
X101082953Y-104305519D01*
X101073564Y-104292777D01*
X101063859Y-104280324D01*
X101053838Y-104268161D01*
X101043501Y-104256287D01*
X101032847Y-104244703D01*
X101021877Y-104233408D01*
X101010591Y-104222403D01*
X100999014Y-104211662D01*
X100987172Y-104201237D01*
X100975065Y-104191128D01*
X100962692Y-104181336D01*
X100950055Y-104171860D01*
X100937152Y-104162700D01*
X100923984Y-104153856D01*
X100910551Y-104145329D01*
X100896852Y-104137118D01*
X100882889Y-104129223D01*
X100868660Y-104121645D01*
X100854166Y-104114383D01*
X100839407Y-104107437D01*
X100824383Y-104100807D01*
X100809093Y-104094494D01*
X100793539Y-104088497D01*
X100777760Y-104082840D01*
X100761799Y-104077549D01*
X100745656Y-104072622D01*
X100729330Y-104068061D01*
X100712821Y-104063864D01*
X100696131Y-104060032D01*
X100679257Y-104056565D01*
X100662202Y-104053463D01*
X100644963Y-104050726D01*
X100627543Y-104048354D01*
X100609940Y-104046347D01*
X100592154Y-104044705D01*
X100574186Y-104043428D01*
X100556035Y-104042515D01*
X100537702Y-104041968D01*
X100519187Y-104041785D01*
X100505650Y-104041941D01*
X100491977Y-104042408D01*
X100478168Y-104043187D01*
X100464223Y-104044277D01*
X100450141Y-104045678D01*
X100435924Y-104047391D01*
X100421570Y-104049415D01*
X100407079Y-104051751D01*
X100392550Y-104054422D01*
X100378079Y-104057453D01*
X100363667Y-104060845D01*
X100349313Y-104064596D01*
X100335017Y-104068708D01*
X100320780Y-104073179D01*
X100306601Y-104078011D01*
X100292481Y-104083203D01*
X100278384Y-104088803D01*
X100264434Y-104094861D01*
X100250630Y-104101377D01*
X100236972Y-104108349D01*
X100223459Y-104115779D01*
X100210093Y-104123667D01*
X100196873Y-104132012D01*
X100183799Y-104140814D01*
X100170963Y-104150025D01*
X100158458Y-104159751D01*
X100146283Y-104169994D01*
X100134440Y-104180752D01*
X100122928Y-104192026D01*
X100111746Y-104203816D01*
X100100895Y-104216121D01*
X100090376Y-104228943D01*
X100305560Y-104404889D01*
G37*
G36*
X100045221Y-105337250D02*
G01*
X99736614Y-105337250D01*
X99630735Y-105078157D01*
X99137462Y-105078157D01*
X99028157Y-105337250D01*
X98712388Y-105337250D01*
X98928185Y-104838994D01*
X99232442Y-104838994D01*
X99542918Y-104838994D01*
X99388770Y-104444127D01*
X99232442Y-104838994D01*
X98928185Y-104838994D01*
X99264829Y-104061716D01*
X99496206Y-104061716D01*
X100045221Y-105337250D01*
G37*
G36*
X98592495Y-105337250D02*
G01*
X98072441Y-105337250D01*
X98061890Y-105337180D01*
X98046054Y-105336816D01*
X98030206Y-105336140D01*
X98014348Y-105335152D01*
X97998479Y-105333852D01*
X97982599Y-105332240D01*
X97966708Y-105330316D01*
X97950806Y-105328080D01*
X97934893Y-105325531D01*
X97918969Y-105322671D01*
X97903034Y-105319499D01*
X97892436Y-105317190D01*
X97876788Y-105313390D01*
X97861442Y-105309184D01*
X97846397Y-105304573D01*
X97831652Y-105299557D01*
X97817209Y-105294136D01*
X97803067Y-105288310D01*
X97789226Y-105282078D01*
X97775686Y-105275442D01*
X97762447Y-105268401D01*
X97749509Y-105260954D01*
X97741083Y-105255716D01*
X97728813Y-105247485D01*
X97716987Y-105238805D01*
X97705603Y-105229676D01*
X97694664Y-105220099D01*
X97684167Y-105210072D01*
X97674114Y-105199597D01*
X97664505Y-105188672D01*
X97655338Y-105177299D01*
X97646616Y-105165477D01*
X97638336Y-105153206D01*
X97633132Y-105144748D01*
X97625956Y-105131583D01*
X97619535Y-105117842D01*
X97613869Y-105103527D01*
X97608959Y-105088636D01*
X97604804Y-105073171D01*
X97601405Y-105057132D01*
X97598761Y-105040517D01*
X97596873Y-105023328D01*
X97595739Y-105005564D01*
X97595362Y-104987225D01*
X97595673Y-104972161D01*
X97596607Y-104957330D01*
X97596939Y-104954216D01*
X97875008Y-104954216D01*
X97875024Y-104956695D01*
X97875827Y-104971073D01*
X97877834Y-104984598D01*
X97881046Y-104997268D01*
X97885461Y-105009085D01*
X97892135Y-105021792D01*
X97896500Y-105028560D01*
X97904910Y-105039632D01*
X97914305Y-105049720D01*
X97924683Y-105058825D01*
X97936044Y-105066946D01*
X97944573Y-105072055D01*
X97957049Y-105078390D01*
X97970152Y-105083772D01*
X97983881Y-105088200D01*
X97996146Y-105091236D01*
X98006528Y-105093210D01*
X98018907Y-105095136D01*
X98033238Y-105096776D01*
X98047449Y-105097759D01*
X98061542Y-105098087D01*
X98312850Y-105098087D01*
X98312850Y-104819064D01*
X98101091Y-104819064D01*
X98096826Y-104819085D01*
X98083769Y-104819395D01*
X98070317Y-104820077D01*
X98056472Y-104821132D01*
X98042232Y-104822559D01*
X98027598Y-104824358D01*
X98022677Y-104825016D01*
X98008174Y-104827414D01*
X97994066Y-104830446D01*
X97980352Y-104834114D01*
X97967032Y-104838416D01*
X97954106Y-104843354D01*
X97949870Y-104845119D01*
X97937718Y-104851042D01*
X97926397Y-104857906D01*
X97915909Y-104865712D01*
X97906253Y-104874460D01*
X97897429Y-104884148D01*
X97893422Y-104889315D01*
X97886591Y-104900518D01*
X97881336Y-104912882D01*
X97877657Y-104926407D01*
X97875555Y-104941092D01*
X97875008Y-104954216D01*
X97596939Y-104954216D01*
X97598164Y-104942732D01*
X97600344Y-104928369D01*
X97603147Y-104914238D01*
X97606572Y-104900342D01*
X97610621Y-104886679D01*
X97615292Y-104873249D01*
X97620464Y-104860146D01*
X97626172Y-104847461D01*
X97632415Y-104835194D01*
X97639193Y-104823346D01*
X97646506Y-104811916D01*
X97654354Y-104800905D01*
X97662738Y-104790312D01*
X97671657Y-104780138D01*
X97681067Y-104770323D01*
X97690926Y-104760967D01*
X97701231Y-104752067D01*
X97711985Y-104743625D01*
X97723186Y-104735640D01*
X97734834Y-104728113D01*
X97746931Y-104721043D01*
X97759475Y-104714430D01*
X97772427Y-104708231D01*
X97785750Y-104702558D01*
X97799442Y-104697410D01*
X97813504Y-104692787D01*
X97827936Y-104688690D01*
X97842738Y-104685119D01*
X97857909Y-104682073D01*
X97873451Y-104679552D01*
X97873451Y-104675815D01*
X97867318Y-104673829D01*
X97855280Y-104669618D01*
X97843544Y-104665088D01*
X97826506Y-104657695D01*
X97810146Y-104649586D01*
X97794464Y-104640759D01*
X97779462Y-104631215D01*
X97765138Y-104620954D01*
X97751494Y-104609976D01*
X97738527Y-104598281D01*
X97726240Y-104585868D01*
X97714632Y-104572739D01*
X97710934Y-104568187D01*
X97700545Y-104554093D01*
X97691213Y-104539343D01*
X97682937Y-104523935D01*
X97675718Y-104507871D01*
X97669555Y-104491150D01*
X97664449Y-104473771D01*
X97660399Y-104455736D01*
X97658286Y-104443348D01*
X97657540Y-104437587D01*
X97934175Y-104437587D01*
X97934712Y-104451790D01*
X97936321Y-104465205D01*
X97939003Y-104477832D01*
X97943489Y-104491567D01*
X97949434Y-104504229D01*
X97953405Y-104510987D01*
X97961103Y-104521995D01*
X97969754Y-104531960D01*
X97979359Y-104540882D01*
X97989918Y-104548760D01*
X97996248Y-104552745D01*
X98007818Y-104559040D01*
X98020014Y-104564471D01*
X98032835Y-104569037D01*
X98046283Y-104572739D01*
X98054161Y-104574418D01*
X98068017Y-104576817D01*
X98081962Y-104578530D01*
X98095997Y-104579559D01*
X98110122Y-104579901D01*
X98312850Y-104579901D01*
X98312850Y-104300878D01*
X98122578Y-104300878D01*
X98108335Y-104301191D01*
X98093942Y-104302130D01*
X98081487Y-104303433D01*
X98068922Y-104305195D01*
X98056248Y-104307418D01*
X98045726Y-104309659D01*
X98033581Y-104312871D01*
X98020076Y-104317337D01*
X98007286Y-104322578D01*
X97995212Y-104328594D01*
X97988599Y-104332447D01*
X97977800Y-104340128D01*
X97967984Y-104349001D01*
X97959152Y-104359066D01*
X97951303Y-104370323D01*
X97950249Y-104372010D01*
X97943810Y-104384570D01*
X97939595Y-104396379D01*
X97936584Y-104409151D01*
X97934778Y-104422888D01*
X97934175Y-104437587D01*
X97657540Y-104437587D01*
X97656643Y-104430668D01*
X97655469Y-104417696D01*
X97654764Y-104404432D01*
X97654530Y-104390876D01*
X97654570Y-104384280D01*
X97654894Y-104371337D01*
X97655541Y-104358725D01*
X97657118Y-104340427D01*
X97659424Y-104322874D01*
X97662457Y-104306065D01*
X97666219Y-104290001D01*
X97670708Y-104274681D01*
X97675926Y-104260105D01*
X97681872Y-104246275D01*
X97688545Y-104233188D01*
X97695947Y-104220846D01*
X97701184Y-104212939D01*
X97709408Y-104201498D01*
X97718077Y-104190561D01*
X97727188Y-104180128D01*
X97736743Y-104170198D01*
X97746741Y-104160772D01*
X97757183Y-104151849D01*
X97768068Y-104143430D01*
X97779396Y-104135515D01*
X97791168Y-104128103D01*
X97803383Y-104121195D01*
X97811742Y-104116812D01*
X97824530Y-104110589D01*
X97837619Y-104104787D01*
X97851009Y-104099407D01*
X97864701Y-104094449D01*
X97878693Y-104089912D01*
X97892987Y-104085796D01*
X97907581Y-104082102D01*
X97922477Y-104078830D01*
X97937674Y-104075979D01*
X97953171Y-104073549D01*
X97963600Y-104072116D01*
X97979229Y-104070140D01*
X97994842Y-104068372D01*
X98010438Y-104066812D01*
X98026018Y-104065460D01*
X98041582Y-104064316D01*
X98057129Y-104063380D01*
X98072659Y-104062652D01*
X98088174Y-104062132D01*
X98103671Y-104061820D01*
X98119153Y-104061716D01*
X98592495Y-104061716D01*
X98592495Y-105337250D01*
G37*
G36*
X97425955Y-104061716D02*
G01*
X97145998Y-104061716D01*
X97145998Y-105078157D01*
X96627812Y-105078157D01*
X96627812Y-105337250D01*
X97425955Y-105337250D01*
X97425955Y-104061716D01*
G37*
G36*
X96468059Y-104061716D02*
G01*
X95605143Y-104061716D01*
X95605143Y-104320808D01*
X96188102Y-104320808D01*
X96188102Y-104559971D01*
X95637529Y-104559971D01*
X95637529Y-104819064D01*
X96188102Y-104819064D01*
X96188102Y-105078157D01*
X95572756Y-105078157D01*
X95572756Y-105337250D01*
X96468059Y-105337250D01*
X96468059Y-104061716D01*
G37*
G36*
X106321994Y-107479250D02*
G01*
X106013387Y-107479250D01*
X105907508Y-107220157D01*
X105414235Y-107220157D01*
X105304930Y-107479250D01*
X104989161Y-107479250D01*
X105204958Y-106980994D01*
X105509215Y-106980994D01*
X105819690Y-106980994D01*
X105665542Y-106586127D01*
X105509215Y-106980994D01*
X105204958Y-106980994D01*
X105541601Y-106203716D01*
X105772979Y-106203716D01*
X106321994Y-107479250D01*
G37*
G36*
X104869268Y-107479250D02*
G01*
X104411807Y-107479250D01*
X104394146Y-107479088D01*
X104376584Y-107478602D01*
X104359122Y-107477793D01*
X104341760Y-107476661D01*
X104324497Y-107475205D01*
X104307334Y-107473425D01*
X104290271Y-107471322D01*
X104273308Y-107468895D01*
X104256444Y-107466145D01*
X104239680Y-107463071D01*
X104223016Y-107459673D01*
X104206452Y-107455952D01*
X104189988Y-107451907D01*
X104173623Y-107447539D01*
X104157358Y-107442847D01*
X104141192Y-107437832D01*
X104125157Y-107432504D01*
X104109360Y-107426874D01*
X104093802Y-107420943D01*
X104078482Y-107414710D01*
X104063401Y-107408175D01*
X104048558Y-107401339D01*
X104033953Y-107394201D01*
X104019587Y-107386761D01*
X104005459Y-107379019D01*
X103991570Y-107370976D01*
X103977919Y-107362631D01*
X103964506Y-107353985D01*
X103951332Y-107345037D01*
X103938397Y-107335787D01*
X103925699Y-107326235D01*
X103913240Y-107316382D01*
X103901059Y-107306192D01*
X103889194Y-107295708D01*
X103877645Y-107284929D01*
X103866412Y-107273855D01*
X103855496Y-107262488D01*
X103844896Y-107250826D01*
X103834612Y-107238869D01*
X103824644Y-107226618D01*
X103814993Y-107214073D01*
X103805658Y-107201234D01*
X103796639Y-107188100D01*
X103787937Y-107174671D01*
X103779551Y-107160949D01*
X103771481Y-107146932D01*
X103763727Y-107132620D01*
X103756290Y-107118014D01*
X103749238Y-107103118D01*
X103742642Y-107087934D01*
X103736500Y-107072463D01*
X103730813Y-107056706D01*
X103725581Y-107040661D01*
X103720804Y-107024329D01*
X103716482Y-107007710D01*
X103712615Y-106990803D01*
X103709203Y-106973610D01*
X103706246Y-106956130D01*
X103703743Y-106938363D01*
X103701696Y-106920308D01*
X103700104Y-106901967D01*
X103698966Y-106883338D01*
X103698284Y-106864422D01*
X103698056Y-106845219D01*
X103698215Y-106830583D01*
X103988602Y-106830583D01*
X103988739Y-106843998D01*
X103989151Y-106857150D01*
X103989839Y-106870040D01*
X103990801Y-106882667D01*
X103992760Y-106901114D01*
X103995337Y-106918970D01*
X103998533Y-106936235D01*
X104002347Y-106952909D01*
X104006780Y-106968991D01*
X104011832Y-106984483D01*
X104017502Y-106999383D01*
X104023791Y-107013692D01*
X104028253Y-107022922D01*
X104035329Y-107036348D01*
X104042865Y-107049271D01*
X104050860Y-107061689D01*
X104059316Y-107073604D01*
X104068231Y-107085016D01*
X104077606Y-107095924D01*
X104087441Y-107106328D01*
X104097736Y-107116229D01*
X104108491Y-107125626D01*
X104119705Y-107134519D01*
X104127384Y-107140178D01*
X104139237Y-107148283D01*
X104151488Y-107155928D01*
X104164140Y-107163114D01*
X104177191Y-107169840D01*
X104190641Y-107176106D01*
X104204491Y-107181912D01*
X104218741Y-107187258D01*
X104233390Y-107192144D01*
X104248439Y-107196571D01*
X104263888Y-107200538D01*
X104274372Y-107202914D01*
X104290295Y-107206190D01*
X104306454Y-107209121D01*
X104322847Y-107211708D01*
X104339476Y-107213949D01*
X104356341Y-107215846D01*
X104373441Y-107217398D01*
X104390776Y-107218605D01*
X104408347Y-107219467D01*
X104426153Y-107219984D01*
X104444194Y-107220157D01*
X104589622Y-107220157D01*
X104589622Y-106462808D01*
X104424575Y-106462808D01*
X104413630Y-106462897D01*
X104397330Y-106463363D01*
X104381172Y-106464229D01*
X104365157Y-106465495D01*
X104349285Y-106467160D01*
X104333554Y-106469224D01*
X104317966Y-106471689D01*
X104302520Y-106474552D01*
X104287217Y-106477816D01*
X104272056Y-106481479D01*
X104257037Y-106485541D01*
X104247114Y-106488433D01*
X104232536Y-106493103D01*
X104218325Y-106498173D01*
X104204480Y-106503642D01*
X104191002Y-106509511D01*
X104177891Y-106515780D01*
X104165147Y-106522448D01*
X104152769Y-106529516D01*
X104140758Y-106536984D01*
X104129114Y-106544851D01*
X104117837Y-106553117D01*
X104110535Y-106558819D01*
X104099940Y-106567731D01*
X104089771Y-106577076D01*
X104080029Y-106586854D01*
X104070714Y-106597064D01*
X104061826Y-106607706D01*
X104053365Y-106618781D01*
X104045331Y-106630288D01*
X104037724Y-106642228D01*
X104030544Y-106654600D01*
X104023791Y-106667405D01*
X104019530Y-106676180D01*
X104013653Y-106689699D01*
X104008396Y-106703645D01*
X104003756Y-106718018D01*
X103999736Y-106732818D01*
X103996334Y-106748044D01*
X103993550Y-106763698D01*
X103991385Y-106779779D01*
X103989839Y-106796287D01*
X103988911Y-106813222D01*
X103988602Y-106830583D01*
X103698215Y-106830583D01*
X103698291Y-106823549D01*
X103698996Y-106802289D01*
X103700169Y-106781440D01*
X103701813Y-106761003D01*
X103703926Y-106740976D01*
X103706508Y-106721361D01*
X103709560Y-106702157D01*
X103713082Y-106683364D01*
X103717073Y-106664983D01*
X103721534Y-106647012D01*
X103726464Y-106629453D01*
X103731864Y-106612305D01*
X103737733Y-106595568D01*
X103744072Y-106579242D01*
X103750880Y-106563327D01*
X103758158Y-106547823D01*
X103765835Y-106532704D01*
X103773841Y-106517943D01*
X103782175Y-106503539D01*
X103790837Y-106489492D01*
X103799828Y-106475804D01*
X103809147Y-106462473D01*
X103818795Y-106449499D01*
X103828771Y-106436884D01*
X103839075Y-106424626D01*
X103849708Y-106412725D01*
X103860669Y-106401182D01*
X103871959Y-106389997D01*
X103883577Y-106379169D01*
X103895524Y-106368700D01*
X103907799Y-106358587D01*
X103920403Y-106348833D01*
X103933308Y-106339422D01*
X103946488Y-106330343D01*
X103959943Y-106321594D01*
X103973673Y-106313176D01*
X103987678Y-106305089D01*
X104001958Y-106297333D01*
X104016513Y-106289908D01*
X104031343Y-106282814D01*
X104046447Y-106276050D01*
X104061827Y-106269618D01*
X104077481Y-106263516D01*
X104093410Y-106257745D01*
X104109615Y-106252305D01*
X104126094Y-106247196D01*
X104142848Y-106242418D01*
X104159877Y-106237971D01*
X104177102Y-106233823D01*
X104194443Y-106229942D01*
X104211902Y-106226329D01*
X104229477Y-106222984D01*
X104247169Y-106219907D01*
X104264978Y-106217097D01*
X104282903Y-106214554D01*
X104300945Y-106212279D01*
X104319105Y-106210272D01*
X104337380Y-106208533D01*
X104355773Y-106207061D01*
X104374282Y-106205857D01*
X104392909Y-106204920D01*
X104411652Y-106204251D01*
X104430511Y-106203849D01*
X104449488Y-106203716D01*
X104869268Y-106203716D01*
X104869268Y-107479250D01*
G37*
G36*
X103646362Y-107479250D02*
G01*
X103337755Y-107479250D01*
X103231876Y-107220157D01*
X102738603Y-107220157D01*
X102629299Y-107479250D01*
X102313529Y-107479250D01*
X102529326Y-106980994D01*
X102833583Y-106980994D01*
X103144059Y-106980994D01*
X102989911Y-106586127D01*
X102833583Y-106980994D01*
X102529326Y-106980994D01*
X102865970Y-106203716D01*
X103097347Y-106203716D01*
X103646362Y-107479250D01*
G37*
G36*
X102193636Y-107479250D02*
G01*
X101913991Y-107479250D01*
X101913991Y-106980994D01*
X101709395Y-106980994D01*
X101696916Y-106980921D01*
X101678409Y-106980538D01*
X101660153Y-106979826D01*
X101642149Y-106978786D01*
X101624397Y-106977418D01*
X101606896Y-106975721D01*
X101589648Y-106973695D01*
X101572651Y-106971342D01*
X101555906Y-106968659D01*
X101539413Y-106965649D01*
X101523172Y-106962310D01*
X101512480Y-106959834D01*
X101496785Y-106955742D01*
X101481501Y-106951196D01*
X101466627Y-106946196D01*
X101452164Y-106940741D01*
X101438111Y-106934832D01*
X101424469Y-106928468D01*
X101411238Y-106921650D01*
X101398417Y-106914378D01*
X101386006Y-106906651D01*
X101374006Y-106898471D01*
X101366249Y-106892707D01*
X101355010Y-106883615D01*
X101344247Y-106873986D01*
X101333961Y-106863821D01*
X101324150Y-106853119D01*
X101314816Y-106841881D01*
X101305958Y-106830106D01*
X101297577Y-106817795D01*
X101289672Y-106804948D01*
X101282242Y-106791564D01*
X101275289Y-106777644D01*
X101270953Y-106768045D01*
X101264973Y-106753122D01*
X101259622Y-106737569D01*
X101254900Y-106721387D01*
X101250809Y-106704575D01*
X101247346Y-106687134D01*
X101244513Y-106669064D01*
X101242975Y-106656667D01*
X101241716Y-106643990D01*
X101240736Y-106631034D01*
X101240037Y-106617798D01*
X101239617Y-106604282D01*
X101239477Y-106590486D01*
X101530023Y-106590486D01*
X101530173Y-106598705D01*
X101531093Y-106611818D01*
X101533301Y-106626590D01*
X101536713Y-106640312D01*
X101541329Y-106652982D01*
X101547150Y-106664602D01*
X101551529Y-106671725D01*
X101560036Y-106683255D01*
X101569615Y-106693592D01*
X101580268Y-106702737D01*
X101591993Y-106710691D01*
X101604476Y-106717586D01*
X101617675Y-106723557D01*
X101629557Y-106727940D01*
X101641965Y-106731644D01*
X101654898Y-106734669D01*
X101659269Y-106735536D01*
X101672512Y-106737803D01*
X101685952Y-106739565D01*
X101699590Y-106740824D01*
X101713425Y-106741580D01*
X101727456Y-106741831D01*
X101913991Y-106741831D01*
X101913991Y-106442878D01*
X101770431Y-106442878D01*
X101765474Y-106442896D01*
X101752964Y-106443102D01*
X101740287Y-106443535D01*
X101727443Y-106444197D01*
X101714432Y-106445086D01*
X101701253Y-106446204D01*
X101687907Y-106447549D01*
X101674675Y-106449193D01*
X101661839Y-106451399D01*
X101649398Y-106454168D01*
X101637352Y-106457500D01*
X101623419Y-106462240D01*
X101610055Y-106467791D01*
X101605706Y-106469830D01*
X101593258Y-106476588D01*
X101581708Y-106484310D01*
X101571056Y-106492996D01*
X101561301Y-106502645D01*
X101552444Y-106513257D01*
X101545985Y-106522861D01*
X101539679Y-106535590D01*
X101534949Y-106549632D01*
X101532212Y-106562338D01*
X101530570Y-106575956D01*
X101530023Y-106590486D01*
X101239477Y-106590486D01*
X101239515Y-106583440D01*
X101239817Y-106569575D01*
X101240420Y-106556014D01*
X101241325Y-106542757D01*
X101242532Y-106529804D01*
X101244040Y-106517156D01*
X101246868Y-106498753D01*
X101250376Y-106481035D01*
X101254561Y-106464001D01*
X101259426Y-106447651D01*
X101264969Y-106431985D01*
X101271191Y-106417004D01*
X101278092Y-106402706D01*
X101283024Y-106393485D01*
X101290813Y-106380103D01*
X101299073Y-106367264D01*
X101307804Y-106354967D01*
X101317006Y-106343211D01*
X101326679Y-106331998D01*
X101336822Y-106321326D01*
X101347436Y-106311197D01*
X101358521Y-106301609D01*
X101370077Y-106292563D01*
X101382103Y-106284059D01*
X101390366Y-106278634D01*
X101403094Y-106270879D01*
X101416222Y-106263584D01*
X101429749Y-106256749D01*
X101443676Y-106250374D01*
X101458002Y-106244458D01*
X101472728Y-106239002D01*
X101487854Y-106234006D01*
X101503379Y-106229470D01*
X101519304Y-106225394D01*
X101535628Y-106221777D01*
X101546646Y-106219590D01*
X101563329Y-106216574D01*
X101580198Y-106213875D01*
X101597254Y-106211494D01*
X101614495Y-106209431D01*
X101631922Y-106207684D01*
X101649536Y-106206256D01*
X101667335Y-106205144D01*
X101685321Y-106204351D01*
X101703493Y-106203874D01*
X101721851Y-106203716D01*
X102193636Y-106203716D01*
X102193636Y-107479250D01*
G37*
G36*
X100824368Y-106442878D02*
G01*
X101186849Y-106442878D01*
X101186849Y-106203716D01*
X100182242Y-106203716D01*
X100182242Y-106442878D01*
X100544722Y-106442878D01*
X100544722Y-107479250D01*
X100824368Y-107479250D01*
X100824368Y-106442878D01*
G37*
G36*
X100035568Y-106203716D02*
G01*
X99172652Y-106203716D01*
X99172652Y-106462808D01*
X99755610Y-106462808D01*
X99755610Y-106701971D01*
X99205038Y-106701971D01*
X99205038Y-106961064D01*
X99755610Y-106961064D01*
X99755610Y-107220157D01*
X99140265Y-107220157D01*
X99140265Y-107479250D01*
X100035568Y-107479250D01*
X100035568Y-106203716D01*
G37*
G36*
X98922590Y-107479250D02*
G01*
X98642944Y-107479250D01*
X98642944Y-106980994D01*
X98504678Y-106980994D01*
X98239357Y-107479250D01*
X97903969Y-107479250D01*
X98226589Y-106952033D01*
X98210026Y-106948566D01*
X98193969Y-106944549D01*
X98178418Y-106939983D01*
X98163373Y-106934867D01*
X98148834Y-106929200D01*
X98134801Y-106922984D01*
X98121274Y-106916218D01*
X98108254Y-106908903D01*
X98095739Y-106901037D01*
X98083730Y-106892622D01*
X98072227Y-106883657D01*
X98061231Y-106874142D01*
X98050740Y-106864077D01*
X98040756Y-106853462D01*
X98031277Y-106842298D01*
X98022304Y-106830583D01*
X98013820Y-106818394D01*
X98005883Y-106805885D01*
X97998493Y-106793054D01*
X97991650Y-106779901D01*
X97985355Y-106766428D01*
X97979607Y-106752634D01*
X97974407Y-106738518D01*
X97969754Y-106724081D01*
X97965649Y-106709323D01*
X97962091Y-106694244D01*
X97959080Y-106678844D01*
X97956617Y-106663123D01*
X97954701Y-106647080D01*
X97953332Y-106630717D01*
X97952511Y-106614032D01*
X97952237Y-106597026D01*
X97952247Y-106595158D01*
X98242783Y-106595158D01*
X98242804Y-106598501D01*
X98243330Y-106611408D01*
X98244972Y-106626487D01*
X98247709Y-106640396D01*
X98251541Y-106653133D01*
X98257584Y-106666873D01*
X98265204Y-106678927D01*
X98268053Y-106682564D01*
X98277154Y-106692746D01*
X98287088Y-106701832D01*
X98297853Y-106709824D01*
X98309451Y-106716722D01*
X98321881Y-106722524D01*
X98330498Y-106725779D01*
X98343916Y-106730023D01*
X98357926Y-106733501D01*
X98372527Y-106736213D01*
X98385146Y-106737887D01*
X98398176Y-106739029D01*
X98408618Y-106739686D01*
X98421479Y-106740384D01*
X98434127Y-106740945D01*
X98449023Y-106741437D01*
X98463613Y-106741733D01*
X98477897Y-106741831D01*
X98642944Y-106741831D01*
X98642944Y-106442878D01*
X98459835Y-106442878D01*
X98455119Y-106442900D01*
X98440897Y-106443229D01*
X98426567Y-106443951D01*
X98412126Y-106445068D01*
X98397576Y-106446579D01*
X98382917Y-106448484D01*
X98378008Y-106449224D01*
X98363707Y-106451929D01*
X98350040Y-106455355D01*
X98337008Y-106459505D01*
X98324611Y-106464376D01*
X98312850Y-106469971D01*
X98309077Y-106471973D01*
X98298272Y-106478651D01*
X98288233Y-106486337D01*
X98278960Y-106495030D01*
X98270453Y-106504730D01*
X98262713Y-106515437D01*
X98255940Y-106527253D01*
X98250568Y-106540515D01*
X98247162Y-106552670D01*
X98244729Y-106565829D01*
X98243269Y-106579992D01*
X98242783Y-106595158D01*
X97952247Y-106595158D01*
X97952275Y-106589978D01*
X97952577Y-106576101D01*
X97953180Y-106562516D01*
X97954085Y-106549222D01*
X97955292Y-106536221D01*
X97956800Y-106523511D01*
X97959628Y-106504995D01*
X97963135Y-106487135D01*
X97967321Y-106469932D01*
X97972186Y-106453386D01*
X97977729Y-106437497D01*
X97983951Y-106422264D01*
X97990852Y-106407689D01*
X97995784Y-106398313D01*
X98003573Y-106384704D01*
X98011833Y-106371643D01*
X98020564Y-106359130D01*
X98029766Y-106347164D01*
X98039439Y-106335745D01*
X98049582Y-106324873D01*
X98060196Y-106314550D01*
X98071281Y-106304773D01*
X98082837Y-106295544D01*
X98094863Y-106286862D01*
X98103123Y-106281358D01*
X98115831Y-106273480D01*
X98128923Y-106266056D01*
X98142399Y-106259087D01*
X98156257Y-106252572D01*
X98170498Y-106246511D01*
X98185123Y-106240905D01*
X98200131Y-106235753D01*
X98215522Y-106231055D01*
X98231296Y-106226812D01*
X98247454Y-106223023D01*
X98258353Y-106220685D01*
X98274848Y-106217461D01*
X98291518Y-106214576D01*
X98308363Y-106212031D01*
X98325384Y-106209825D01*
X98342580Y-106207958D01*
X98359950Y-106206431D01*
X98377496Y-106205243D01*
X98395218Y-106204394D01*
X98413114Y-106203885D01*
X98431185Y-106203716D01*
X98922590Y-106203716D01*
X98922590Y-107479250D01*
G37*
M02*
